<svg width="106" height="60" viewBox="0 0 106 60" fill="none" xmlns="http://www.w3.org/2000/svg">
<rect x="53" width="33" height="60" fill="#82BB58"/>
<path d="M54.381 33.2522H38.1371L47.1119 28.2506C48.0501 27.7257 48.389 26.5352 47.8668 25.5958L46.5291 23.1975C46.0032 22.2579 44.8116 21.921 43.874 22.4453L40.1407 24.5256C40.5797 23.6446 40.853 22.7807 40.954 21.9417C41.1224 20.5447 40.8054 19.2838 40.0373 18.2953C38.7888 16.6888 36.6088 16.1547 34.7358 16.9965C34.4038 17.1457 34.2556 17.5359 34.4048 17.868C34.554 18.2 34.9442 18.3482 35.2763 18.199C36.5927 17.6073 38.1224 17.9796 38.9963 19.1043C40.2512 20.7192 39.7698 23.2451 37.7136 25.8781L36.9175 26.3216L36.3414 25.2895C36.1935 25.0237 36.0014 24.7917 35.7755 24.6002C35.9156 23.7619 36.3059 22.677 36.7374 21.9683C36.9267 21.6574 36.8282 21.2519 36.5173 21.0625C36.2063 20.8731 35.8008 20.9718 35.6115 21.2827C35.147 22.0453 34.7446 23.1021 34.5422 24.0371C33.9901 23.949 33.4295 24.0462 32.9362 24.3212L32.7083 24.4483C32.6179 22.5462 32.9128 20.9544 33.5772 19.8063C33.7596 19.4912 33.652 19.088 33.3369 18.9056C33.022 18.7234 32.6186 18.8308 32.4362 19.1459C31.5545 20.6694 31.2185 22.6909 31.4343 25.1585L30.6383 25.6023C27.2749 23.102 23.9838 22.5909 21.7758 24.2473C20.1772 25.4464 19.575 27.5684 20.3113 29.4075C21.0626 31.2838 22.9412 32.4263 25.5292 32.6676L21.7071 34.7973C20.7695 35.3202 20.4314 36.5098 20.9538 37.4497L22.2912 39.8501C22.6476 40.4887 23.3137 40.8491 23.9993 40.8491C24.3204 40.8491 24.6459 40.77 24.9459 40.6035C24.9461 40.6034 24.9464 40.6032 24.9467 40.603L29.2539 38.2027V48.9393C29.2539 50.2301 30.3043 51.2802 31.5954 51.2802H53.6395C54.9306 51.2802 55.9811 50.2301 55.9811 48.9393V34.8519C55.981 33.9699 55.2632 33.2522 54.381 33.2522ZM32.4133 34.9328L30.4598 31.4295L36.4083 28.1149L38.3615 31.6178L35.3872 33.2754C35.281 33.3039 35.1855 33.3581 35.1078 33.4312L32.4133 34.9328ZM44.5169 23.5965C44.6141 23.5421 44.7196 23.5163 44.8239 23.5163C45.0461 23.5163 45.2623 23.6334 45.3784 23.8406L46.715 26.2371C46.8845 26.5419 46.7737 26.9291 46.4693 27.0994L39.5132 30.976L37.56 27.473L44.5169 23.5965ZM33.5783 25.4729C33.7551 25.3743 33.9506 25.3242 34.1492 25.3242C34.2588 25.3242 34.3693 25.3395 34.4781 25.3703C34.7841 25.4572 35.0367 25.6561 35.1898 25.9316L35.7657 26.9632L29.8177 30.2776L29.241 29.2429C29.1274 29.0394 29.0784 28.8111 29.0961 28.5824C29.0967 28.576 29.0975 28.5698 29.0979 28.5635C29.1048 28.4905 29.1178 28.4176 29.1383 28.3454C29.2251 28.0404 29.4242 27.7884 29.6996 27.6353L33.5783 25.4729ZM21.5352 28.9176C21.0201 27.6309 21.4442 26.1443 22.5669 25.3022C24.1836 24.0895 26.6811 24.4753 29.3646 26.3125L29.0584 26.4832C28.5736 26.7527 28.2008 27.1672 27.9834 27.6694C27.1129 27.3953 26.3312 27.2448 25.2114 27.1222C24.8492 27.0829 24.524 27.3439 24.4844 27.7057C24.4447 28.0677 24.706 28.3931 25.0679 28.4328C26.2996 28.5676 27.0243 28.7354 27.7945 28.9935C27.8347 29.303 27.9333 29.6048 28.0895 29.8849L28.6663 30.9196L27.9466 31.3207C24.6753 31.6783 22.2829 30.7851 21.5352 28.9176ZM24.305 39.4516C24.0041 39.618 23.6092 39.5067 23.4426 39.2082L22.1058 36.8089C21.9363 36.5041 22.0456 36.1183 22.3491 35.9492L28.4461 32.5517C28.4654 32.5421 28.4842 32.5317 28.5023 32.5204L29.3083 32.0713L31.2618 35.5746L29.6031 36.499C29.5996 36.5008 29.5961 36.5029 29.5926 36.5048L24.305 39.4516ZM30.5723 48.9394V37.4681L35.7714 34.5706H38.8109V40.4083C38.8109 40.7723 39.1061 41.0674 39.4701 41.0674C39.8341 41.0674 40.1293 40.7723 40.1293 40.4083V34.5706H45.1055V49.962H40.1293V43.5314C40.1293 43.1673 39.8341 42.8722 39.4701 42.8722C39.1061 42.8722 38.8109 43.1673 38.8109 43.5314V49.962H31.5954C31.0312 49.962 30.5723 49.5033 30.5723 48.9394ZM54.6627 48.9394C54.6627 49.5033 54.2037 49.962 53.6395 49.962H46.424V34.5706H54.381C54.5336 34.5706 54.6627 34.6994 54.6627 34.8519V48.9394Z" fill="#82BB58"/>
<path d="M51.964 18.4835C51.9728 18.5645 52.8093 26.6245 49.9872 29.6838C49.7403 29.9514 49.7572 30.3685 50.0247 30.6153C50.1515 30.7322 50.3117 30.7899 50.4715 30.7899C50.6492 30.7899 50.8263 30.7185 50.9563 30.5776C54.1802 27.0828 53.3132 18.6967 53.2747 18.3414C53.2355 17.9794 52.9105 17.7182 52.5484 17.757C52.1865 17.7964 51.9248 18.1216 51.964 18.4835Z" fill="#82BB58"/>
<path d="M57.9937 17.5038C56.8785 19.2113 56.5243 20.7353 56.5097 20.7994C56.4292 21.1539 56.6511 21.506 57.0055 21.5872C57.0549 21.5985 57.1042 21.6039 57.1529 21.6039C57.4531 21.6039 57.7246 21.3972 57.795 21.0924C57.7981 21.0787 58.1244 19.6997 59.1232 18.1855C60.4374 16.1931 62.2439 14.9107 64.4924 14.3739C64.8465 14.2895 65.0651 13.9339 64.9805 13.5798C64.8961 13.2257 64.5406 13.0072 64.1864 13.0916C61.6202 13.7041 59.4788 15.2298 57.9937 17.5038Z" fill="#82BB58"/>
<path d="M44.4722 13.8825C44.4745 13.8985 44.4775 13.9368 44.4716 14.0142L44.3164 15.9321C44.2943 16.1355 44.2507 16.5907 44.6223 16.8719C45.0003 17.1579 45.4442 16.9786 45.6405 16.8994L47.4021 16.1652C47.437 16.1539 47.5231 16.1536 47.5549 16.1634L49.3305 16.9021C49.4422 16.9472 49.6425 17.0281 49.8653 17.0281C50.02 17.0281 50.1857 16.9892 50.3402 16.8722C50.7108 16.5917 50.6674 16.1364 50.6454 15.9324L50.493 14.0172C50.4871 13.9401 50.4892 13.9009 50.4912 13.8835L51.771 12.3412C51.9188 12.1734 52.2107 11.8335 52.0732 11.3928C51.9338 10.9457 51.4795 10.833 51.2855 10.7848L49.3398 10.3022L48.3165 8.59404C48.2223 8.43522 47.9724 8.01353 47.484 8.01221C47.4833 8.01221 47.4825 8.01221 47.4818 8.01221C46.9948 8.01221 46.7424 8.4325 46.6473 8.59097C46.6472 8.59114 46.6472 8.59132 46.6471 8.59149L45.6317 10.2866L45.6224 10.3023L43.6753 10.7851C43.4818 10.8335 43.0284 10.9468 42.8894 11.3938C42.7523 11.8344 43.054 12.1859 43.1911 12.3416L44.4722 13.8825ZM46.0026 11.5662C46.4421 11.4576 46.6007 11.2399 46.7369 11.0073L47.4808 9.76474L48.2316 11.0179C48.3672 11.2456 48.5248 11.4589 48.9585 11.5661L50.4037 11.9245L49.473 13.046C49.1671 13.4075 49.1548 13.8084 49.1785 14.1196L49.2848 15.4552L48.0646 14.9475C47.7179 14.8011 47.25 14.8007 46.9 14.9463L45.6776 15.4557L45.7859 14.1174C45.8074 13.8356 45.8006 13.4183 45.4948 13.0504L44.5585 11.9244L46.0026 11.5662Z" fill="#373F41"/>
<path d="M64.661 27.4964C64.7999 27.3401 65.1022 26.9896 64.9658 26.5488C64.827 26.1002 64.3712 25.987 64.1764 25.9387L62.2334 25.4568L61.2081 23.7448C61.113 23.5864 60.8607 23.166 60.3737 23.166C60.3729 23.166 60.3721 23.166 60.3714 23.166C59.8848 23.1673 59.6349 23.5861 59.5399 23.7462L58.5226 25.4404L58.5129 25.4568L56.5698 25.9387C56.3752 25.9869 55.9194 26.1001 55.7806 26.5487C55.6443 26.9895 55.9465 27.34 56.0854 27.4962L57.3642 29.0373C57.3662 29.0546 57.3684 29.0931 57.3627 29.1679L57.2073 31.0856C57.1867 31.2883 57.1444 31.7474 57.517 32.0273C57.8941 32.3107 58.3361 32.1322 58.5315 32.0531L60.2933 31.3189C60.3292 31.3074 60.4173 31.3074 60.4483 31.3171L62.2216 32.0558C62.3332 32.1009 62.5332 32.1817 62.7562 32.1817C62.9103 32.1817 63.0753 32.1431 63.2296 32.0272C63.6021 31.7473 63.5599 31.2883 63.5392 31.0855L63.3841 29.1709C63.3782 29.0939 63.3803 29.0547 63.3823 29.0372L64.661 27.4964ZM62.3641 28.1998C62.0581 28.5613 62.0458 28.9622 62.0695 29.2744L62.1777 30.6095L60.9551 30.1C60.607 29.955 60.1392 29.9551 59.7911 30.1L58.5686 30.6095L58.677 29.2711C58.7006 28.9622 58.6883 28.5613 58.3864 28.2046L57.4518 27.0782L58.898 26.7195C59.3341 26.6105 59.492 26.3934 59.6277 26.1617L60.3742 24.9179L61.0922 26.1166L61.1188 26.1617C61.2545 26.3935 61.4124 26.6106 61.8497 26.7198L63.2949 27.0782L62.3641 28.1998Z" fill="#82BB58"/>
<path d="M57.9686 13.6613C59.787 13.6613 61.2664 12.1835 61.2664 10.3671C61.2664 8.54924 59.787 7.07031 57.9686 7.07031C56.1503 7.07031 54.6709 8.54924 54.6709 10.3671C54.6709 12.1835 56.1503 13.6613 57.9686 13.6613ZM57.9686 8.38867C59.0601 8.38867 59.948 9.27619 59.948 10.3671C59.948 11.4566 59.0601 12.3429 57.9686 12.3429C56.8772 12.3429 55.9893 11.4566 55.9893 10.3671C55.9893 9.27619 56.8772 8.38867 57.9686 8.38867Z" fill="#82BB58"/>
<g clip-path="url(#clip0)">
<path d="M54.381 33.2522H38.1371L47.1119 28.2506C48.0501 27.7257 48.389 26.5352 47.8668 25.5958L46.5291 23.1975C46.0032 22.2579 44.8116 21.921 43.874 22.4453L40.1407 24.5256C40.5797 23.6446 40.853 22.7807 40.954 21.9417C41.1224 20.5447 40.8054 19.2838 40.0373 18.2953C38.7888 16.6888 36.6088 16.1547 34.7358 16.9965C34.4038 17.1457 34.2556 17.5359 34.4048 17.868C34.554 18.2 34.9442 18.3482 35.2763 18.199C36.5927 17.6073 38.1224 17.9796 38.9963 19.1043C40.2512 20.7192 39.7698 23.2451 37.7136 25.8781L36.9175 26.3216L36.3414 25.2895C36.1935 25.0237 36.0014 24.7917 35.7755 24.6002C35.9156 23.7619 36.3059 22.677 36.7374 21.9683C36.9267 21.6574 36.8282 21.2519 36.5173 21.0625C36.2063 20.8731 35.8008 20.9718 35.6115 21.2827C35.147 22.0453 34.7446 23.1021 34.5422 24.0371C33.9901 23.949 33.4295 24.0462 32.9362 24.3212L32.7083 24.4483C32.6179 22.5462 32.9128 20.9544 33.5772 19.8063C33.7596 19.4912 33.652 19.088 33.3369 18.9056C33.022 18.7234 32.6186 18.8308 32.4362 19.1459C31.5545 20.6694 31.2185 22.6909 31.4343 25.1585L30.6383 25.6023C27.2749 23.102 23.9838 22.5909 21.7758 24.2473C20.1772 25.4464 19.575 27.5684 20.3113 29.4075C21.0626 31.2838 22.9412 32.4263 25.5292 32.6676L21.7071 34.7973C20.7695 35.3202 20.4314 36.5098 20.9538 37.4497L22.2912 39.8501C22.6476 40.4887 23.3137 40.8491 23.9993 40.8491C24.3204 40.8491 24.6459 40.77 24.9459 40.6035C24.9461 40.6034 24.9464 40.6032 24.9467 40.603L29.2539 38.2027V48.9393C29.2539 50.2301 30.3043 51.2802 31.5954 51.2802H53.6395C54.9306 51.2802 55.9811 50.2301 55.9811 48.9393V34.8519C55.981 33.9699 55.2632 33.2522 54.381 33.2522ZM32.4133 34.9328L30.4598 31.4295L36.4083 28.1149L38.3615 31.6178L35.3872 33.2754C35.281 33.3039 35.1855 33.3581 35.1078 33.4312L32.4133 34.9328ZM44.5169 23.5965C44.6141 23.5421 44.7196 23.5163 44.8239 23.5163C45.0461 23.5163 45.2623 23.6334 45.3784 23.8406L46.715 26.2371C46.8845 26.5419 46.7737 26.9291 46.4693 27.0994L39.5132 30.976L37.56 27.473L44.5169 23.5965ZM33.5783 25.4729C33.7551 25.3743 33.9506 25.3242 34.1492 25.3242C34.2588 25.3242 34.3693 25.3395 34.4781 25.3703C34.7841 25.4572 35.0367 25.6561 35.1898 25.9316L35.7657 26.9632L29.8177 30.2776L29.241 29.2429C29.1274 29.0394 29.0784 28.8111 29.0961 28.5824C29.0967 28.576 29.0975 28.5698 29.0979 28.5635C29.1048 28.4905 29.1178 28.4176 29.1383 28.3454C29.2251 28.0404 29.4242 27.7884 29.6996 27.6353L33.5783 25.4729ZM21.5352 28.9176C21.0201 27.6309 21.4442 26.1443 22.5669 25.3022C24.1836 24.0895 26.6811 24.4753 29.3646 26.3125L29.0584 26.4832C28.5736 26.7527 28.2008 27.1672 27.9834 27.6694C27.1129 27.3953 26.3312 27.2448 25.2114 27.1222C24.8492 27.0829 24.524 27.3439 24.4844 27.7057C24.4447 28.0677 24.706 28.3931 25.0679 28.4328C26.2996 28.5676 27.0243 28.7354 27.7945 28.9935C27.8347 29.303 27.9333 29.6048 28.0895 29.8849L28.6663 30.9196L27.9466 31.3207C24.6753 31.6783 22.2829 30.7851 21.5352 28.9176ZM24.305 39.4516C24.0041 39.618 23.6092 39.5067 23.4426 39.2082L22.1058 36.8089C21.9363 36.5041 22.0456 36.1183 22.3491 35.9492L28.4461 32.5517C28.4654 32.5421 28.4842 32.5317 28.5023 32.5204L29.3083 32.0713L31.2618 35.5746L29.6031 36.499C29.5996 36.5008 29.5961 36.5029 29.5926 36.5048L24.305 39.4516ZM30.5723 48.9394V37.4681L35.7714 34.5706H38.8109V40.4083C38.8109 40.7723 39.1061 41.0674 39.4701 41.0674C39.8341 41.0674 40.1293 40.7723 40.1293 40.4083V34.5706H45.1055V49.962H40.1293V43.5314C40.1293 43.1673 39.8341 42.8722 39.4701 42.8722C39.1061 42.8722 38.8109 43.1673 38.8109 43.5314V49.962H31.5954C31.0312 49.962 30.5723 49.5033 30.5723 48.9394ZM54.6627 48.9394C54.6627 49.5033 54.2037 49.962 53.6395 49.962H46.424V34.5706H54.381C54.5336 34.5706 54.6627 34.6994 54.6627 34.8519V48.9394Z" fill="#F4F5F4"/>
<path d="M51.964 18.4835C51.9728 18.5645 52.8093 26.6245 49.9872 29.6838C49.7403 29.9514 49.7572 30.3685 50.0247 30.6153C50.1515 30.7322 50.3117 30.7899 50.4715 30.7899C50.6492 30.7899 50.8263 30.7185 50.9563 30.5776C54.1802 27.0828 53.3132 18.6967 53.2747 18.3414C53.2355 17.9794 52.9105 17.7182 52.5484 17.757C52.1865 17.7964 51.9248 18.1216 51.964 18.4835Z" fill="#F4F5F4"/>
<path d="M57.9937 17.5038C56.8785 19.2113 56.5243 20.7353 56.5097 20.7994C56.4292 21.1539 56.6511 21.506 57.0055 21.5872C57.0549 21.5985 57.1042 21.6039 57.1529 21.6039C57.4531 21.6039 57.7246 21.3972 57.795 21.0924C57.7981 21.0787 58.1244 19.6997 59.1232 18.1855C60.4374 16.1931 62.2439 14.9107 64.4924 14.3739C64.8465 14.2895 65.0651 13.9339 64.9805 13.5798C64.8961 13.2257 64.5406 13.0072 64.1864 13.0916C61.6202 13.7041 59.4788 15.2298 57.9937 17.5038Z" fill="#F4F5F4"/>
<path d="M44.4722 13.8825C44.4745 13.8985 44.4775 13.9368 44.4716 14.0142L44.3164 15.9321C44.2943 16.1355 44.2507 16.5907 44.6223 16.8719C45.0003 17.1579 45.4442 16.9786 45.6405 16.8994L47.4021 16.1652C47.437 16.1539 47.5231 16.1536 47.5549 16.1634L49.3305 16.9021C49.4422 16.9472 49.6425 17.0281 49.8653 17.0281C50.02 17.0281 50.1857 16.9892 50.3402 16.8722C50.7108 16.5917 50.6674 16.1364 50.6454 15.9324L50.493 14.0172C50.4871 13.9401 50.4892 13.9009 50.4912 13.8835L51.771 12.3412C51.9188 12.1734 52.2107 11.8335 52.0732 11.3928C51.9338 10.9457 51.4795 10.833 51.2855 10.7848L49.3398 10.3022L48.3165 8.59404C48.2223 8.43522 47.9724 8.01353 47.484 8.01221C47.4833 8.01221 47.4825 8.01221 47.4818 8.01221C46.9948 8.01221 46.7424 8.4325 46.6473 8.59097C46.6472 8.59114 46.6472 8.59132 46.6471 8.59149L45.6317 10.2866L45.6224 10.3023L43.6753 10.7851C43.4818 10.8335 43.0284 10.9468 42.8894 11.3938C42.7523 11.8344 43.054 12.1859 43.1911 12.3416L44.4722 13.8825ZM46.0026 11.5662C46.4421 11.4576 46.6007 11.2399 46.7369 11.0073L47.4808 9.76474L48.2316 11.0179C48.3672 11.2456 48.5248 11.4589 48.9585 11.5661L50.4037 11.9245L49.473 13.046C49.1671 13.4075 49.1548 13.8084 49.1785 14.1196L49.2848 15.4552L48.0646 14.9475C47.7179 14.8011 47.25 14.8007 46.9 14.9463L45.6776 15.4557L45.7859 14.1174C45.8074 13.8356 45.8006 13.4183 45.4948 13.0504L44.5585 11.9244L46.0026 11.5662Z" fill="#F4F5F4"/>
<path d="M64.661 27.4964C64.7999 27.3401 65.1022 26.9896 64.9658 26.5488C64.827 26.1002 64.3712 25.987 64.1764 25.9387L62.2334 25.4568L61.2081 23.7448C61.113 23.5864 60.8607 23.166 60.3737 23.166C60.3729 23.166 60.3721 23.166 60.3714 23.166C59.8848 23.1673 59.6349 23.5861 59.5399 23.7462L58.5226 25.4404L58.5129 25.4568L56.5698 25.9387C56.3752 25.9869 55.9194 26.1001 55.7806 26.5487C55.6443 26.9895 55.9465 27.34 56.0854 27.4962L57.3642 29.0373C57.3662 29.0546 57.3684 29.0931 57.3627 29.1679L57.2073 31.0856C57.1867 31.2883 57.1444 31.7474 57.517 32.0273C57.8941 32.3107 58.3361 32.1322 58.5315 32.0531L60.2933 31.3189C60.3292 31.3074 60.4173 31.3074 60.4483 31.3171L62.2216 32.0558C62.3332 32.1009 62.5332 32.1817 62.7562 32.1817C62.9103 32.1817 63.0753 32.1431 63.2296 32.0272C63.6021 31.7473 63.5599 31.2883 63.5392 31.0855L63.3841 29.1709C63.3782 29.0939 63.3803 29.0547 63.3823 29.0372L64.661 27.4964ZM62.3641 28.1998C62.0581 28.5613 62.0458 28.9622 62.0695 29.2744L62.1777 30.6095L60.9551 30.1C60.607 29.955 60.1392 29.9551 59.7911 30.1L58.5686 30.6095L58.677 29.2711C58.7006 28.9622 58.6883 28.5613 58.3864 28.2046L57.4518 27.0782L58.898 26.7195C59.3341 26.6105 59.492 26.3934 59.6277 26.1617L60.3742 24.9179L61.0922 26.1166L61.1188 26.1617C61.2545 26.3935 61.4124 26.6106 61.8497 26.7198L63.2949 27.0782L62.3641 28.1998Z" fill="#F4F5F4"/>
<path d="M57.9686 13.6613C59.787 13.6613 61.2664 12.1835 61.2664 10.3671C61.2664 8.54924 59.787 7.07031 57.9686 7.07031C56.1503 7.07031 54.6709 8.54924 54.6709 10.3671C54.6709 12.1835 56.1503 13.6613 57.9686 13.6613ZM57.9686 8.38867C59.0601 8.38867 59.948 9.27619 59.948 10.3671C59.948 11.4566 59.0601 12.3429 57.9686 12.3429C56.8772 12.3429 55.9893 11.4566 55.9893 10.3671C55.9893 9.27619 56.8772 8.38867 57.9686 8.38867Z" fill="#F4F5F4"/>
</g>
<rect opacity="0.2" x="85" y="4.13794" width="4" height="4.13793" fill="#82BB58"/>
<rect opacity="0.2" x="97" y="17.5862" width="9" height="9.31034" fill="#82BB58"/>
<rect opacity="0.2" x="81" y="37.2415" width="5" height="5.17241" fill="#82BB58"/>
<rect opacity="0.2" x="94" y="55.8621" width="3" height="3.10345" fill="#82BB58"/>
<rect opacity="0.2" x="9" width="5" height="5.17241" fill="#82BB58"/>
<rect opacity="0.2" x="23" y="56.8965" width="3" height="3.10345" fill="#82BB58"/>
<rect opacity="0.2" y="47.5862" width="7" height="7.24138" fill="#82BB58"/>
<rect opacity="0.2" x="5" y="25.8621" width="3" height="3.10345" fill="#82BB58"/>
<rect opacity="0.2" x="79" y="50.6897" width="1" height="1.03448" fill="#82BB58"/>
<defs>
<clipPath id="clip0">
<rect width="18" height="46" fill="white" transform="translate(52 6)"/>
</clipPath>
</defs>
</svg>
