<svg width="106" height="60" viewBox="0 0 106 60" fill="none" xmlns="http://www.w3.org/2000/svg">
<rect x="53" width="33" height="60" fill="#82BB58"/>
<path d="M30.3136 16.0122C30.5959 16.1036 30.8856 16.149 31.1741 16.149C31.6087 16.149 32.0401 16.046 32.4383 15.8425C32.4385 15.8424 32.4387 15.8423 32.4389 15.8423C33.8619 15.1136 35.4095 14.5479 37.0387 14.1608C38.6535 13.777 40.3227 13.5825 41.9997 13.5825C43.6768 13.5825 45.346 13.7771 46.9608 14.1608C48.5901 14.548 50.1376 15.1137 51.5612 15.8425C52.9286 16.5416 54.6095 15.9975 55.3083 14.6299C56.007 13.2626 55.463 11.5817 54.0963 10.8833C52.242 9.93391 50.2748 9.20851 48.2494 8.72709C44.1693 7.75764 39.83 7.75764 35.75 8.72709C33.7244 9.20851 31.7572 9.93391 29.9037 10.883C29.2414 11.2214 28.7505 11.7976 28.5214 12.5053C28.2924 13.213 28.3527 13.9676 28.6913 14.63C29.0297 15.2923 29.6058 15.7832 30.3136 16.0122ZM30.1567 13.0345C30.2444 12.7636 30.4323 12.543 30.6865 12.4132C32.4182 11.5265 34.2555 10.849 36.1474 10.3993C38.0574 9.94542 40.0264 9.71528 41.9997 9.71528C43.9729 9.71528 45.9419 9.94542 47.852 10.3993C49.7437 10.8488 51.581 11.5264 53.3135 12.4135C53.837 12.681 54.0452 13.3245 53.7778 13.8478C53.5103 14.3714 52.8666 14.5797 52.3439 14.3123C50.7986 13.5211 49.1211 12.9074 47.358 12.4885C45.6131 12.0739 43.8103 11.8636 41.9996 11.8636C40.1889 11.8636 38.386 12.0738 36.6412 12.4885C34.8781 12.9074 33.2007 13.5211 31.6553 14.3123C31.4018 14.4417 31.1132 14.4645 30.8426 14.377C30.5717 14.2893 30.3511 14.1014 30.2215 13.8478C30.092 13.5943 30.069 13.3054 30.1567 13.0345Z" fill="#82BB58"/>
<path d="M49.3262 22.7102C50.0339 22.4811 50.61 21.9902 50.9485 21.3279C51.287 20.6655 51.3473 19.9109 51.1183 19.2031C50.8893 18.4954 50.3983 17.9193 49.7366 17.5811C48.5424 16.9696 47.2828 16.5041 45.993 16.1976C43.3844 15.5777 40.6167 15.5777 38.008 16.1976C36.7185 16.504 35.459 16.9695 34.265 17.5808C33.6027 17.9192 33.1117 18.4955 32.8827 19.2032C32.6538 19.9108 32.714 20.6655 33.0525 21.3278C33.3909 21.9902 33.9672 22.4811 34.6749 22.7102C34.9572 22.8015 35.2469 22.8469 35.5353 22.8469C35.9699 22.8469 36.4014 22.7439 36.7996 22.5404C36.7997 22.5404 36.8 22.5403 36.8002 22.5402C37.5634 22.1494 38.4033 21.8437 39.2967 21.6315C41.0549 21.2136 42.9467 21.2137 44.7045 21.6315C45.5979 21.8437 46.4378 22.1494 47.2016 22.5404C47.8639 22.879 48.6184 22.9391 49.3262 22.7102ZM42.0005 19.5978C40.9517 19.5978 39.9083 19.7194 38.8993 19.9591C37.8724 20.2031 36.9028 20.5567 36.0174 21.01C35.7639 21.1396 35.4751 21.1627 35.2041 21.0749C34.9332 20.9872 34.7126 20.7993 34.583 20.5457C34.4534 20.2922 34.4304 20.0033 34.518 19.7324C34.6057 19.4615 34.7936 19.2409 35.0477 19.1111C36.1199 18.5621 37.2495 18.1446 38.4052 17.87C40.7539 17.3119 43.2469 17.3119 45.5956 17.87C46.7516 18.1447 47.8813 18.5623 48.9537 19.1114C49.2073 19.241 49.3953 19.4616 49.4829 19.7325C49.5706 20.0035 49.5475 20.2923 49.4179 20.5458C49.2884 20.7994 49.0678 20.9874 48.7968 21.075C48.5258 21.1628 48.2369 21.1397 47.9841 21.0103C47.0985 20.5569 46.1287 20.2033 45.1017 19.9593C44.0928 19.7194 43.0494 19.5978 42.0005 19.5978Z" fill="#82BB58"/>
<path d="M45.3752 24.2797C44.8406 24.0058 44.2887 23.8003 43.7348 23.6688C42.5981 23.3988 41.4012 23.3988 40.2643 23.6688C39.7107 23.8003 39.1588 24.0059 38.6247 24.2793C37.2573 24.9781 36.7134 26.659 37.4122 28.0264C37.7506 28.6887 38.3269 29.1797 39.0346 29.4087C39.7421 29.6376 40.4968 29.5774 41.1592 29.2388C41.1593 29.2388 41.1594 29.2387 41.1595 29.2387C41.2618 29.1864 41.3977 29.1393 41.553 29.1025C41.839 29.0343 42.1599 29.0343 42.4466 29.1025C42.6016 29.1394 42.7376 29.1864 42.84 29.2388C43.2382 29.4423 43.6697 29.5452 44.1043 29.5452C44.3926 29.5452 44.6824 29.5 44.9646 29.4086C45.6723 29.1796 46.2485 28.6886 46.5871 28.0263C46.9256 27.3639 46.9859 26.6094 46.7569 25.9016C46.5278 25.1938 46.0368 24.6178 45.3752 24.2797ZM45.0566 27.2442C44.7892 27.7675 44.1456 27.9759 43.6226 27.7085C43.3965 27.5928 43.1343 27.4992 42.8437 27.4302C42.5706 27.3654 42.2867 27.3324 41.9996 27.3324C41.7126 27.3324 41.4286 27.3654 41.1559 27.4302C40.8652 27.4992 40.6031 27.5927 40.3771 27.7083C39.8538 27.9755 39.2103 27.7675 38.9427 27.2442C38.8132 26.9907 38.7902 26.7017 38.8778 26.4309C38.9655 26.16 39.1534 25.9393 39.4076 25.8095C39.8199 25.5984 40.2419 25.4407 40.6617 25.341C41.5385 25.1327 42.461 25.1327 43.3378 25.341C43.7578 25.4408 44.1797 25.5984 44.5925 25.8098C44.8461 25.9394 45.0341 26.16 45.1217 26.431C45.2092 26.7017 45.1862 26.9906 45.0566 27.2442Z" fill="black"/>
<path d="M64 35.3449C64 33.8049 62.7471 32.552 61.207 32.552H22.793C21.2529 32.552 20 33.8049 20 35.345C20 36.7827 21.092 37.9697 22.4901 38.1212L33.8789 46.4181V48.559C33.8789 50.4545 35.421 51.9966 37.3164 51.9966H46.6836C48.579 51.9966 50.1211 50.4545 50.1211 48.559V46.4181L61.5099 38.1212C62.908 37.9697 64 36.7826 64 35.3449ZM22.793 34.2707H61.207C61.7994 34.2707 62.2813 34.7526 62.2813 35.345C62.2813 35.9373 61.7994 36.4192 61.207 36.4192H45.8669C45.3924 36.4192 45.0075 36.804 45.0075 37.2785C45.0075 37.7531 45.3924 38.1379 45.8669 38.1379H58.5678L48.9817 45.1215H35.0182L25.4322 38.1379H38.1326C38.6071 38.1379 38.9919 37.7531 38.9919 37.2785C38.9919 36.804 38.6071 36.4192 38.1326 36.4192H22.793C22.2006 36.4192 21.7187 35.9372 21.7187 35.3449C21.7187 34.7527 22.2006 34.2707 22.793 34.2707ZM48.4023 48.559C48.4023 49.5067 47.6313 50.2778 46.6836 50.2778H37.3164C36.3687 50.2778 35.5977 49.5067 35.5977 48.559V46.8403H48.4023V48.559Z" fill="#82BB58"/>
<path d="M42.0003 38.1379C42.4748 38.1379 42.8596 37.7531 42.8596 37.2786C42.8596 36.804 42.4748 36.4192 42.0003 36.4192H41.9997C41.5251 36.4192 41.1406 36.804 41.1406 37.2786C41.1406 37.7531 41.5257 38.1379 42.0003 38.1379Z" fill="#82BB58"/>
<g clip-path="url(#clip0)">
<path d="M30.3136 16.0122C30.5959 16.1036 30.8856 16.149 31.1741 16.149C31.6087 16.149 32.0401 16.046 32.4383 15.8425C32.4385 15.8424 32.4387 15.8423 32.4389 15.8423C33.8619 15.1136 35.4095 14.5479 37.0387 14.1608C38.6535 13.777 40.3227 13.5825 41.9997 13.5825C43.6768 13.5825 45.346 13.7771 46.9608 14.1608C48.5901 14.548 50.1376 15.1137 51.5612 15.8425C52.9286 16.5416 54.6095 15.9975 55.3083 14.6299C56.007 13.2626 55.463 11.5817 54.0963 10.8833C52.242 9.93391 50.2748 9.20851 48.2494 8.72709C44.1693 7.75764 39.83 7.75764 35.75 8.72709C33.7244 9.20851 31.7572 9.93391 29.9037 10.883C29.2414 11.2214 28.7505 11.7976 28.5214 12.5053C28.2924 13.213 28.3527 13.9676 28.6913 14.63C29.0297 15.2923 29.6058 15.7832 30.3136 16.0122ZM30.1567 13.0345C30.2444 12.7636 30.4323 12.543 30.6865 12.4132C32.4182 11.5265 34.2555 10.849 36.1474 10.3993C38.0574 9.94542 40.0264 9.71528 41.9997 9.71528C43.9729 9.71528 45.9419 9.94542 47.852 10.3993C49.7437 10.8488 51.581 11.5264 53.3135 12.4135C53.837 12.681 54.0452 13.3245 53.7778 13.8478C53.5103 14.3714 52.8666 14.5797 52.3439 14.3123C50.7986 13.5211 49.1211 12.9074 47.358 12.4885C45.6131 12.0739 43.8103 11.8636 41.9996 11.8636C40.1889 11.8636 38.386 12.0738 36.6412 12.4885C34.8781 12.9074 33.2007 13.5211 31.6553 14.3123C31.4018 14.4417 31.1132 14.4645 30.8426 14.377C30.5717 14.2893 30.3511 14.1014 30.2215 13.8478C30.092 13.5943 30.069 13.3054 30.1567 13.0345Z" fill="#F4F5F4"/>
<path d="M64 35.3449C64 33.8049 62.7471 32.552 61.207 32.552H22.793C21.2529 32.552 20 33.8049 20 35.345C20 36.7827 21.092 37.9697 22.4901 38.1212L33.8789 46.4181V48.559C33.8789 50.4545 35.421 51.9966 37.3164 51.9966H46.6836C48.579 51.9966 50.1211 50.4545 50.1211 48.559V46.4181L61.5099 38.1212C62.908 37.9697 64 36.7826 64 35.3449ZM22.793 34.2707H61.207C61.7994 34.2707 62.2813 34.7526 62.2813 35.345C62.2813 35.9373 61.7994 36.4192 61.207 36.4192H45.8669C45.3924 36.4192 45.0075 36.804 45.0075 37.2785C45.0075 37.7531 45.3924 38.1379 45.8669 38.1379H58.5678L48.9817 45.1215H35.0182L25.4322 38.1379H38.1326C38.6071 38.1379 38.9919 37.7531 38.9919 37.2785C38.9919 36.804 38.6071 36.4192 38.1326 36.4192H22.793C22.2006 36.4192 21.7187 35.9372 21.7187 35.3449C21.7187 34.7527 22.2006 34.2707 22.793 34.2707ZM48.4023 48.559C48.4023 49.5067 47.6313 50.2778 46.6836 50.2778H37.3164C36.3687 50.2778 35.5977 49.5067 35.5977 48.559V46.8403H48.4023V48.559Z" fill="#F4F5F4"/>
</g>
<rect opacity="0.2" x="85" y="4.13794" width="4" height="4.13793" fill="#82BB58"/>
<rect opacity="0.2" x="97" y="17.5862" width="9" height="9.31034" fill="#82BB58"/>
<rect opacity="0.2" x="81" y="37.2415" width="5" height="5.17241" fill="#82BB58"/>
<rect opacity="0.2" x="94" y="55.8621" width="3" height="3.10345" fill="#82BB58"/>
<rect opacity="0.2" x="9" width="5" height="5.17241" fill="#82BB58"/>
<rect opacity="0.2" x="23" y="56.8965" width="3" height="3.10345" fill="#82BB58"/>
<rect opacity="0.2" y="47.5862" width="7" height="7.24138" fill="#82BB58"/>
<rect opacity="0.2" x="5" y="25.8621" width="3" height="3.10345" fill="#82BB58"/>
<rect opacity="0.2" x="79" y="50.6897" width="1" height="1.03448" fill="#82BB58"/>
<defs>
<clipPath id="clip0">
<rect width="18" height="44" fill="white" transform="translate(53 8)"/>
</clipPath>
</defs>
</svg>
