<svg width="106" height="60" viewBox="0 0 106 60" fill="none" xmlns="http://www.w3.org/2000/svg">
<rect x="53" width="33" height="60" fill="#82BB58"/>
<path d="M67.8755 43.0108C67.5847 42.7872 67.2051 42.7156 66.8329 42.8145L62.7013 43.9122C62.0601 44.0825 61.5766 44.7201 61.5766 45.3954V50.5923C61.2434 50.4521 60.8717 50.3733 60.4798 50.3733C59.0538 50.3733 57.8936 51.4111 57.8936 52.6866C57.8936 53.9622 59.0538 54.9999 60.4798 54.9999C61.9058 54.9999 63.066 53.9622 63.066 52.6866C63.066 52.6543 63.066 48.0436 63.066 48.0436L67.2153 46.94C67.8564 46.7697 68.3399 46.1322 68.3399 45.4568V43.9913C68.3399 43.5951 68.1707 43.2379 67.8755 43.0108ZM60.4798 53.5104C59.8853 53.5104 59.3829 53.1331 59.3829 52.6865C59.3829 52.24 59.8853 51.8626 60.4798 51.8626C61.0743 51.8626 61.5766 52.24 61.5766 52.6865C61.5765 53.1331 61.0743 53.5104 60.4798 53.5104ZM66.8158 45.5048L63.0659 46.5023L63.0654 45.4027C63.0683 45.3872 63.086 45.3598 63.1006 45.347L66.8506 44.3508L66.851 45.4491C66.8481 45.4648 66.8305 45.4921 66.8158 45.5048Z" fill="#82BB58"/>
<path d="M68.6965 19.7211C68.51 19.3547 68.0615 19.2089 67.6951 19.3954C67.3286 19.5819 67.1827 20.0303 67.3693 20.3968C70.0172 25.599 70.0172 34.0635 67.3693 39.2655C67.1827 39.632 67.3286 40.0804 67.6951 40.267C67.8033 40.3222 67.9187 40.3482 68.0323 40.3482C68.3034 40.3482 68.565 40.1995 68.6964 39.9411C70.0772 37.2284 70.8377 33.638 70.8377 29.8311C70.8377 26.0242 70.0773 22.4338 68.6965 19.7211Z" fill="#82BB58"/>
<path d="M65.3299 35.6164C65.4382 35.6715 65.5534 35.6975 65.6671 35.6975C65.9383 35.6975 66.1999 35.5486 66.3314 35.2903C67.8897 32.2279 67.8897 27.4301 66.3314 24.3676C66.1448 24.0011 65.6964 23.855 65.3299 24.0416C64.9635 24.2282 64.8175 24.6766 65.004 25.0431C66.3468 27.6821 66.3468 31.9759 65.004 34.6148C64.8175 34.9814 64.9635 35.4298 65.3299 35.6164Z" fill="#82BB58"/>
<path d="M58.4185 16.8297C54.9469 13.3567 50.3301 11.4441 45.4184 11.4441C40.5069 11.4441 35.8894 13.3567 32.4163 16.8297C25.2505 23.9986 25.2505 35.6632 32.4165 42.8322C35.4416 45.8561 39.4485 47.74 43.6987 48.1368C44.2679 48.19 44.8374 48.2163 45.406 48.2163C49.0275 48.2163 52.5962 47.1476 55.6082 45.1371C55.9503 44.9087 56.0425 44.4463 55.8141 44.1043C55.5857 43.7621 55.1233 43.6701 54.7813 43.8983C48.1136 48.3491 39.1507 47.4577 33.4696 41.7791C26.8842 35.1909 26.8842 24.471 33.4695 17.8828C36.6611 14.6912 40.9045 12.9335 45.4183 12.9335C49.932 12.9335 54.1747 14.6911 57.365 17.8828C63.9532 24.4711 63.9532 35.1908 57.365 41.7789C57.0742 42.0699 57.0742 42.5413 57.365 42.8321C57.6559 43.1229 58.1274 43.1229 58.4182 42.8321C65.5871 35.6633 65.5871 23.9986 58.4185 16.8297Z" fill="#82BB58"/>
<path d="M36.4472 20.6251C36.7417 20.3379 36.7478 19.8665 36.4607 19.572C36.1736 19.2774 35.7021 19.2715 35.4077 19.5585C32.6145 22.2811 31.0762 25.9286 31.0762 29.8291C31.0762 37.7382 37.5105 44.1727 45.4194 44.1727C53.3282 44.1727 59.7626 37.7382 59.7626 29.8291C59.7626 21.9201 53.3281 15.4856 45.4193 15.4856C42.8936 15.4856 40.409 16.1523 38.2339 17.4138C37.8781 17.6201 37.757 18.0758 37.9633 18.4316C38.1697 18.7874 38.6255 18.9086 38.9811 18.7023C40.9294 17.5722 43.1556 16.975 45.4192 16.975C52.5068 16.975 58.273 22.7413 58.273 29.8292C58.273 36.917 52.5068 42.6834 45.4192 42.6834C38.3316 42.6834 32.5654 36.917 32.5654 29.8292C32.5655 26.3337 33.944 23.065 36.4472 20.6251Z" fill="#82BB58"/>
<path d="M23.7525 10.7458L25.569 11.6665L26.4905 13.4848C26.6977 13.8909 26.9852 14.0968 27.3449 14.0968H27.347C27.5949 14.0962 27.9442 13.9892 28.1998 13.4829L29.1205 11.6665L30.9357 10.7463C31.3444 10.54 31.5517 10.2521 31.5518 9.89088C31.5518 9.52946 31.3446 9.24161 30.9368 9.03567L29.1205 8.11503L28.2002 6.29946C27.9941 5.89147 27.7067 5.68414 27.346 5.68335C27.3454 5.68335 27.3447 5.68335 27.3441 5.68335C27.0964 5.68335 26.748 5.78959 26.4894 6.29618L25.5689 8.11513L23.7534 9.03528C23.2462 9.29155 23.1392 9.64086 23.1387 9.8888C23.138 10.2493 23.344 10.5375 23.7525 10.7458ZM26.4597 9.33335C26.6011 9.26166 26.7159 9.14678 26.7875 9.00539L27.3443 7.90522L27.9021 9.00579C27.9737 9.14708 28.0884 9.26176 28.2297 9.33335L29.3295 9.89078L28.2296 10.4483C28.0884 10.5199 27.9736 10.6346 27.902 10.7759L27.3446 11.8756L26.7873 10.7759C26.7157 10.6346 26.601 10.5199 26.4597 10.4483L25.3599 9.89078L26.4597 9.33335Z" fill="#82BB58"/>
<path d="M59.1675 12.1747H59.9087C60.32 12.1747 60.6534 11.8414 60.6534 11.43C60.6534 11.0186 60.32 10.6853 59.9087 10.6853H59.1675C58.7562 10.6853 58.4229 11.0186 58.4229 11.43C58.4229 11.8414 58.7562 12.1747 59.1675 12.1747Z" fill="#82BB58"/>
<path d="M63.23 12.1747H63.9712C64.3825 12.1747 64.7159 11.8414 64.7159 11.43C64.7159 11.0186 64.3825 10.6853 63.9712 10.6853H63.23C62.8187 10.6853 62.4854 11.0186 62.4854 11.43C62.4854 11.8414 62.8187 12.1747 63.23 12.1747Z" fill="#82BB58"/>
<path d="M61.5689 14.5767C61.9803 14.5767 62.3136 14.2434 62.3136 13.832V13.0909C62.3136 12.6795 61.9803 12.3462 61.5689 12.3462C61.1575 12.3462 60.8242 12.6795 60.8242 13.0909V13.832C60.8242 14.2433 61.1576 14.5767 61.5689 14.5767Z" fill="#82BB58"/>
<path d="M61.5689 10.5147C61.9803 10.5147 62.3136 10.1814 62.3136 9.77V9.02888C62.3136 8.61751 61.9803 8.28418 61.5689 8.28418C61.1575 8.28418 60.8242 8.61751 60.8242 9.02888V9.77C60.8242 10.1814 61.1576 10.5147 61.5689 10.5147Z" fill="#82BB58"/>
<path d="M31.6693 47.4868H30.9283C30.517 47.4868 30.1836 47.8201 30.1836 48.2315C30.1836 48.6429 30.517 48.9762 30.9283 48.9762H31.6693C32.0806 48.9762 32.414 48.6429 32.414 48.2315C32.414 47.8201 32.0806 47.4868 31.6693 47.4868Z" fill="#82BB58"/>
<path d="M27.6078 47.4868H26.8668C26.4555 47.4868 26.1221 47.8201 26.1221 48.2315C26.1221 48.6429 26.4555 48.9762 26.8668 48.9762H27.6078C28.0191 48.9762 28.3525 48.6429 28.3525 48.2315C28.3525 47.8201 28.0191 47.4868 27.6078 47.4868Z" fill="#82BB58"/>
<path d="M29.2691 45.0823C28.8578 45.0823 28.5244 45.4156 28.5244 45.827V46.5708C28.5244 46.9821 28.8578 47.3155 29.2691 47.3155C29.6804 47.3155 30.0138 46.9821 30.0138 46.5708V45.827C30.0138 45.4156 29.6804 45.0823 29.2691 45.0823Z" fill="#82BB58"/>
<path d="M29.2691 49.147C28.8578 49.147 28.5244 49.4803 28.5244 49.8917V50.6327C28.5244 51.0441 28.8578 51.3774 29.2691 51.3774C29.6804 51.3774 30.0138 51.0441 30.0138 50.6327V49.8917C30.0138 49.4804 29.6804 49.147 29.2691 49.147Z" fill="#82BB58"/>
<path d="M48.4933 28.6849C47.0174 28.9571 45.8611 30.1159 45.8611 31.3228C45.8611 31.8758 46.0983 32.3778 46.529 32.7361C46.9502 33.0868 47.5194 33.2719 48.1461 33.2719C48.347 33.2719 48.554 33.2528 48.764 33.2141C50.2383 32.9414 51.3931 31.7827 51.3931 30.5762V24.1376C51.3931 24.1111 51.3916 24.0849 51.389 24.0591C51.3682 23.7169 51.2142 23.4011 50.9562 23.1844C50.6681 22.9421 50.2778 22.8425 49.8831 22.9111L43.0705 24.1199C42.3686 24.2424 41.8187 24.8805 41.8187 25.5723V31.8457C41.3914 31.722 40.9069 31.7014 40.4057 31.7941C38.9297 32.0664 37.7734 33.2251 37.7734 34.432C37.7734 34.985 38.0106 35.487 38.4412 35.8454C38.8625 36.1961 39.4317 36.3812 40.0584 36.3812C40.2592 36.3812 40.4663 36.3622 40.676 36.3234C42.152 36.0511 43.3082 34.8924 43.3082 33.6855V28.261L49.9038 27.0905V28.736C49.477 28.6127 48.9936 28.5922 48.4933 28.6849ZM48.4933 31.7497C47.9976 31.841 47.6457 31.7279 47.4817 31.5916C47.3909 31.516 47.3505 31.4331 47.3505 31.3229C47.3505 30.8921 47.9548 30.2989 48.7636 30.1495H48.7639C48.8882 30.1266 49.0034 30.1165 49.1088 30.1165C49.4224 30.1165 49.6496 30.2055 49.7722 30.3072C49.8631 30.3829 49.9036 30.4659 49.9036 30.5763C49.9036 31.0069 49.3003 31.6003 48.4933 31.7497ZM40.4056 34.8589C39.9094 34.9501 39.5577 34.8372 39.394 34.7008C39.3032 34.6253 39.2628 34.5424 39.2628 34.4321C39.2628 34.0013 39.8671 33.4081 40.6759 33.2588C40.8007 33.2359 40.9164 33.2257 41.0222 33.2257C41.337 33.2257 41.5648 33.3147 41.6876 33.4169C41.7783 33.4924 41.8187 33.5753 41.8187 33.6856C41.8186 34.1164 41.2143 34.7096 40.4056 34.8589ZM43.308 26.7485V25.603C43.3145 25.5959 43.3234 25.5887 43.3286 25.5869L49.9036 24.4204V25.578L43.308 26.7485Z" fill="#373F41"/>
<path d="M23.4686 20.3968C23.6552 20.0304 23.5093 19.582 23.1427 19.3954C22.7761 19.2089 22.3278 19.3546 22.1412 19.7212C20.7605 22.4338 20 26.0244 20 29.8312C20 33.6379 20.7605 37.2285 22.1412 39.9411C22.2727 40.1995 22.5342 40.3482 22.8055 40.3482C22.9192 40.3482 23.0346 40.322 23.1427 40.267C23.5092 40.0804 23.6552 39.632 23.4686 39.2656C20.8207 34.0634 20.8207 25.5989 23.4686 20.3968Z" fill="#82BB58"/>
<path d="M25.5045 24.042C25.1377 23.8558 24.6895 24.0022 24.5033 24.3688C22.9481 27.4311 22.9481 32.2284 24.5033 35.2905C24.6347 35.5491 24.8963 35.6981 25.1679 35.6981C25.2813 35.6981 25.3965 35.672 25.5045 35.6172C25.8712 35.431 26.0175 34.9827 25.8313 34.616C24.4908 31.9769 24.4908 27.6825 25.8313 25.0433C26.0174 24.6765 25.8712 24.2283 25.5045 24.042Z" fill="#82BB58"/>
<g clip-path="url(#clip0)">
<path d="M67.8755 43.011C67.5847 42.7874 67.2051 42.7158 66.8329 42.8147L62.7013 43.9124C62.0601 44.0827 61.5766 44.7204 61.5766 45.3956V50.5925C61.2434 50.4523 60.8717 50.3736 60.4798 50.3736C59.0538 50.3736 57.8936 51.4113 57.8936 52.6868C57.8936 53.9624 59.0538 55.0001 60.4798 55.0001C61.9058 55.0001 63.066 53.9624 63.066 52.6868C63.066 52.6545 63.066 48.0439 63.066 48.0439L67.2153 46.9402C67.8564 46.77 68.3399 46.1324 68.3399 45.457V43.9915C68.3399 43.5954 68.1707 43.2381 67.8755 43.011ZM60.4798 53.5106C59.8853 53.5106 59.3829 53.1333 59.3829 52.6867C59.3829 52.2402 59.8853 51.8629 60.4798 51.8629C61.0743 51.8629 61.5766 52.2402 61.5766 52.6867C61.5765 53.1333 61.0743 53.5106 60.4798 53.5106ZM66.8158 45.5051L63.0659 46.5026L63.0654 45.403C63.0683 45.3874 63.086 45.36 63.1006 45.3473L66.8506 44.3511L66.851 45.4494C66.8481 45.465 66.8305 45.4924 66.8158 45.5051Z" fill="#F4F5F4"/>
<path d="M68.6965 19.7214C68.51 19.3549 68.0615 19.2091 67.6951 19.3956C67.3286 19.5822 67.1827 20.0306 67.3693 20.3971C70.0172 25.5992 70.0172 34.0637 67.3693 39.2658C67.1827 39.6323 67.3286 40.0807 67.6951 40.2672C67.8033 40.3225 67.9187 40.3485 68.0323 40.3485C68.3034 40.3485 68.565 40.1997 68.6964 39.9414C70.0772 37.2287 70.8377 33.6383 70.8377 29.8314C70.8377 26.0245 70.0773 22.4341 68.6965 19.7214Z" fill="#F4F5F4"/>
<path d="M65.3299 35.6166C65.4382 35.6717 65.5534 35.6977 65.6671 35.6977C65.9383 35.6977 66.1999 35.5489 66.3314 35.2905C67.8897 32.2281 67.8897 27.4303 66.3314 24.3678C66.1448 24.0013 65.6964 23.8553 65.3299 24.0418C64.9635 24.2284 64.8175 24.6768 65.004 25.0433C66.3468 27.6823 66.3468 31.9761 65.004 34.615C64.8175 34.9816 64.9635 35.43 65.3299 35.6166Z" fill="#F4F5F4"/>
<path d="M58.4185 16.83C54.9469 13.3569 50.3301 11.4443 45.4184 11.4443C40.5069 11.4443 35.8894 13.3569 32.4163 16.83C25.2505 23.9988 25.2505 35.6634 32.4165 42.8325C35.4416 45.8563 39.4485 47.7402 43.6987 48.1371C44.2679 48.1902 44.8374 48.2165 45.406 48.2165C49.0275 48.2165 52.5962 47.1478 55.6082 45.1374C55.9503 44.909 56.0425 44.4466 55.8141 44.1045C55.5857 43.7623 55.1233 43.6703 54.7813 43.8986C48.1136 48.3494 39.1507 47.4579 33.4696 41.7794C26.8842 35.1911 26.8842 24.4712 33.4695 17.8831C36.6611 14.6914 40.9045 12.9337 45.4183 12.9337C49.932 12.9337 54.1747 14.6913 57.365 17.8831C63.9532 24.4713 63.9532 35.191 57.365 41.7792C57.0742 42.0701 57.0742 42.5415 57.365 42.8324C57.6559 43.1231 58.1274 43.1231 58.4182 42.8324C65.5871 35.6635 65.5871 23.9988 58.4185 16.83Z" fill="#F4F5F4"/>
<path d="M36.4472 20.6253C36.7417 20.3382 36.7478 19.8667 36.4607 19.5722C36.1736 19.2776 35.7021 19.2718 35.4077 19.5587C32.6145 22.2813 31.0762 25.9289 31.0762 29.8294C31.0762 37.7384 37.5105 44.1729 45.4194 44.1729C53.3282 44.1729 59.7626 37.7384 59.7626 29.8294C59.7626 21.9203 53.3281 15.4858 45.4193 15.4858C42.8936 15.4858 40.409 16.1526 38.2339 17.414C37.8781 17.6203 37.757 18.0761 37.9633 18.4319C38.1697 18.7876 38.6255 18.9089 38.9811 18.7025C40.9294 17.5725 43.1556 16.9752 45.4192 16.9752C52.5068 16.9752 58.273 22.7416 58.273 29.8295C58.273 36.9173 52.5068 42.6836 45.4192 42.6836C38.3316 42.6836 32.5654 36.9173 32.5654 29.8295C32.5655 26.334 33.944 23.0653 36.4472 20.6253Z" fill="#F4F5F4"/>
<path d="M59.1675 12.1749H59.9087C60.32 12.1749 60.6534 11.8416 60.6534 11.4302C60.6534 11.0189 60.32 10.6855 59.9087 10.6855H59.1675C58.7562 10.6855 58.4229 11.0189 58.4229 11.4302C58.4229 11.8416 58.7562 12.1749 59.1675 12.1749Z" fill="#F4F5F4"/>
<path d="M63.23 12.1749H63.9712C64.3825 12.1749 64.7159 11.8416 64.7159 11.4302C64.7159 11.0189 64.3825 10.6855 63.9712 10.6855H63.23C62.8187 10.6855 62.4854 11.0189 62.4854 11.4302C62.4854 11.8416 62.8187 12.1749 63.23 12.1749Z" fill="#F4F5F4"/>
<path d="M61.5689 14.5769C61.9803 14.5769 62.3136 14.2436 62.3136 13.8323V13.0911C62.3136 12.6798 61.9803 12.3464 61.5689 12.3464C61.1575 12.3464 60.8242 12.6798 60.8242 13.0911V13.8323C60.8242 14.2435 61.1576 14.5769 61.5689 14.5769Z" fill="#F4F5F4"/>
<path d="M61.5689 10.5149C61.9803 10.5149 62.3136 10.1816 62.3136 9.77024V9.02912C62.3136 8.61775 61.9803 8.28442 61.5689 8.28442C61.1575 8.28442 60.8242 8.61775 60.8242 9.02912V9.77024C60.8242 10.1816 61.1576 10.5149 61.5689 10.5149Z" fill="#F4F5F4"/>
</g>
<rect opacity="0.2" x="85" y="4.13794" width="4" height="4.13793" fill="#82BB58"/>
<rect opacity="0.2" x="97" y="17.5862" width="9" height="9.31034" fill="#82BB58"/>
<rect opacity="0.2" x="81" y="37.2415" width="5" height="5.17241" fill="#82BB58"/>
<rect opacity="0.2" x="94" y="55.8621" width="3" height="3.10345" fill="#82BB58"/>
<rect opacity="0.2" x="9" width="5" height="5.17241" fill="#82BB58"/>
<rect opacity="0.2" x="23" y="56.8965" width="3" height="3.10345" fill="#82BB58"/>
<rect opacity="0.2" y="47.5862" width="7" height="7.24138" fill="#82BB58"/>
<rect opacity="0.2" x="5" y="25.8621" width="3" height="3.10345" fill="#82BB58"/>
<rect opacity="0.2" x="79" y="50.6897" width="1" height="1.03448" fill="#82BB58"/>
<defs>
<clipPath id="clip0">
<rect width="18" height="47" fill="white" transform="translate(53 8)"/>
</clipPath>
</defs>
</svg>
