<svg width="48" height="48" viewBox="0 0 48 48" fill="none" xmlns="http://www.w3.org/2000/svg">
<path d="M42.1936 8.09443C41.3561 7.25878 40.2213 6.78948 39.0382 6.78948C37.8551 6.78948 36.7203 7.25878 35.8828 8.09443L34.2234 9.7538C32.8846 9.25405 31.467 8.99866 30.038 8.99977C29.604 9.00047 29.1705 9.02447 28.7391 9.07168L30.5306 7.28011C30.6003 7.21047 30.6555 7.12779 30.6932 7.03679C30.7309 6.9458 30.7503 6.84826 30.7503 6.74977C30.7503 6.65128 30.7309 6.55375 30.6932 6.46275C30.6555 6.37175 30.6003 6.28907 30.5306 6.21943L26.7806 2.46943C26.711 2.39978 26.6283 2.34453 26.5373 2.30684C26.4463 2.26914 26.3488 2.24974 26.2503 2.24974C26.1518 2.24974 26.0542 2.26914 25.9632 2.30684C25.8722 2.34453 25.7896 2.39978 25.7199 2.46943L23.2168 4.97255C22.3526 4.30151 21.3165 3.88803 20.2277 3.77968C20.1401 3.1192 19.8046 2.51674 19.2893 2.09443C18.774 1.67212 18.1173 1.46157 17.4525 1.50546C16.7877 1.54935 16.1645 1.8444 15.7091 2.33079C15.2538 2.81718 15.0005 3.45851 15.0005 4.12477V7.59352C14.6586 7.49365 14.2985 7.47301 13.9475 7.53317C13.5965 7.59333 13.2639 7.73272 12.9748 7.94073C12.6858 8.14874 12.4479 8.4199 12.2794 8.73361C12.1108 9.04733 12.016 9.39533 12.0021 9.75118C11.6462 9.765 11.2982 9.85979 10.9844 10.0283C10.6706 10.1969 10.3994 10.4347 10.1914 10.7238C9.98331 11.0129 9.84391 11.3456 9.78376 11.6967C9.72361 12.0478 9.74428 12.4079 9.84421 12.7498H6.37546C5.70895 12.7494 5.06726 13.0026 4.58057 13.458C4.09388 13.9133 3.79863 14.5368 3.75473 15.2019C3.71082 15.8669 3.92155 16.5238 4.34415 17.0392C4.76676 17.5546 5.36959 17.8899 6.03036 17.9772C6.13872 19.066 6.5522 20.1021 7.22324 20.9663L4.72011 23.4694C4.65047 23.5391 4.59522 23.6218 4.55752 23.7127C4.51983 23.8037 4.50043 23.9013 4.50043 23.9998C4.50043 24.0983 4.51983 24.1958 4.55752 24.2868C4.59522 24.3778 4.65047 24.4605 4.72011 24.5301L8.47011 28.2801C8.53976 28.3498 8.62244 28.405 8.71344 28.4427C8.80443 28.4804 8.90196 28.4998 9.00046 28.4998C9.09895 28.4998 9.19648 28.4804 9.28748 28.4427C9.37848 28.405 9.46116 28.3498 9.5308 28.2801L10.3635 27.4474C9.94912 30.3901 8.58453 33.1167 6.47746 35.2123L5.47011 36.2194C5.36522 36.3243 5.29378 36.458 5.26484 36.6034C5.2359 36.7489 5.25075 36.8997 5.30752 37.0368C5.36429 37.1738 5.46042 37.291 5.58377 37.3734C5.70711 37.4558 5.85212 37.4998 6.00046 37.4998H8.25046V39.7498C8.25045 39.8981 8.29444 40.0431 8.37685 40.1665C8.45926 40.2898 8.57639 40.3859 8.71344 40.4427C8.85049 40.4995 9.00129 40.5143 9.14678 40.4854C9.29227 40.4564 9.42591 40.385 9.5308 40.2801L9.65765 40.1534C11.5589 38.2515 13.1132 36.032 14.2505 33.5951V45.7498C14.2505 45.9487 14.3295 46.1395 14.4701 46.2801C14.6108 46.4208 14.8015 46.4998 15.0005 46.4998H43.5005C43.6994 46.4998 43.8901 46.4208 44.0308 46.2801C44.1714 46.1395 44.2505 45.9487 44.2505 45.7498V21.7498C44.2505 21.5509 44.1714 21.3601 44.0308 21.2194C43.8901 21.0788 43.6994 20.9998 43.5005 20.9998H42.038C42.04 19.1858 41.6283 17.3952 40.8342 15.7643L42.1936 14.4049C43.0291 13.5674 43.4983 12.4327 43.4983 11.2497C43.4983 10.0667 43.0291 8.93196 42.1936 8.09443ZM26.2505 4.06036L28.9399 6.74977L21.7505 13.9391L19.0611 11.2498L26.2505 4.06036ZM17.2505 18.4391L14.5611 15.7498L18.0005 12.3105L20.6898 14.9998L17.2505 18.4391ZM18.1101 19.701C18.0628 20.1323 18.0387 20.5659 18.038 20.9998H16.8111L18.1101 19.701ZM16.5005 4.12477C16.5005 3.8264 16.619 3.54025 16.83 3.32927C17.0409 3.1183 17.3271 2.99977 17.6255 2.99977C17.9238 2.99977 18.21 3.1183 18.421 3.32927C18.6319 3.54025 18.7505 3.8264 18.7505 4.12477V4.49977C18.7505 4.69868 18.8295 4.88945 18.9701 5.0301C19.1108 5.17075 19.3015 5.24977 19.5005 5.24977H19.6292C20.5298 5.24754 21.4088 5.52572 22.1442 6.04571L18.0005 10.1891L16.5005 8.68908V4.12477ZM12.0915 11.2498H12.7505C12.9494 11.2498 13.1401 11.1708 13.2808 11.0301C13.4214 10.8894 13.5005 10.6987 13.5005 10.4998V9.8408C13.5004 9.67447 13.5498 9.51188 13.6422 9.37358C13.7346 9.23528 13.8659 9.12748 14.0196 9.06383C14.1732 9.00018 14.3423 8.98353 14.5055 9.01598C14.6686 9.04843 14.8184 9.12853 14.9361 9.24615L16.9398 11.2498L13.5005 14.6891L11.4968 12.6854C11.3792 12.5678 11.2991 12.4179 11.2667 12.2548C11.2342 12.0916 11.2509 11.9226 11.3145 11.7689C11.3782 11.6152 11.486 11.4839 11.6243 11.3915C11.7626 11.2991 11.9252 11.2498 12.0915 11.2498ZM6.75046 16.4998H6.37546C6.07709 16.4998 5.79094 16.3812 5.57996 16.1703C5.36898 15.9593 5.25046 15.6731 5.25046 15.3748C5.25046 15.0764 5.36898 14.7903 5.57996 14.5793C5.79094 14.3683 6.07709 14.2498 6.37546 14.2498H10.9398L12.4398 15.7498L8.29639 19.8935C7.77641 19.1581 7.49823 18.2791 7.50046 17.3785V17.2498C7.50046 17.0509 7.42144 16.8601 7.28079 16.7194C7.14014 16.5788 6.94937 16.4998 6.75046 16.4998ZM14.2505 29.1524C13.4359 32.3561 11.8963 35.3299 9.75046 37.8444V36.7498C9.75046 36.5509 9.67144 36.3601 9.53079 36.2194C9.39014 36.0788 9.19937 35.9998 9.00046 35.9998H7.80449C10.4325 33.2523 11.9293 29.6157 11.9967 25.8142L14.2505 23.5605V29.1524ZM9.00046 26.6892L6.31105 23.9998L13.5005 16.8105L16.1898 19.4998L9.00046 26.6892ZM25.5005 39.5746C25.1769 39.2844 24.7762 39.0942 24.3469 39.0269C23.9176 38.9596 23.4779 39.0181 23.0811 39.1953C22.6843 39.3724 22.3473 39.6607 22.1108 40.0253C21.8743 40.3899 21.7484 40.8152 21.7484 41.2498C21.7484 41.6843 21.8743 42.1096 22.1108 42.4742C22.3473 42.8388 22.6843 43.1271 23.0811 43.3043C23.4779 43.4815 23.9176 43.5399 24.3469 43.4726C24.7762 43.4053 25.1769 43.2151 25.5005 42.925V44.9998H15.7505V37.8105L19.7201 41.7801C19.814 41.874 19.931 41.9412 20.0594 41.975C20.1877 42.0088 20.3228 42.008 20.4507 41.9726C20.5786 41.9371 20.6948 41.8684 20.7874 41.7734C20.8801 41.6783 20.9459 41.5604 20.9781 41.4316L22.4781 35.4316C22.5094 35.306 22.5077 35.1744 22.4732 35.0496C22.4386 34.9249 22.3723 34.8111 22.2807 34.7196C22.1892 34.628 22.0755 34.5617 21.9507 34.5272C21.8259 34.4926 21.6943 34.4909 21.5687 34.5223L15.7505 35.9767V22.4998H25.5005V39.5746ZM24.7505 41.2498C24.7505 41.3981 24.7065 41.5431 24.6241 41.6664C24.5416 41.7898 24.4245 41.8859 24.2875 41.9427C24.1504 41.9994 23.9996 42.0143 23.8541 41.9854C23.7087 41.9564 23.575 41.885 23.4701 41.7801C23.3652 41.6752 23.2938 41.5416 23.2649 41.3961C23.2359 41.2506 23.2508 41.0998 23.3075 40.9628C23.3643 40.8257 23.4604 40.7086 23.5838 40.6262C23.7071 40.5438 23.8521 40.4998 24.0005 40.4998C24.1993 40.5 24.3899 40.5791 24.5305 40.7197C24.6711 40.8603 24.7502 41.0509 24.7505 41.2498ZM17.2174 37.1561L20.7197 36.281L19.8441 39.7833L17.2174 37.1561ZM24.788 20.1984V20.9998H19.538C19.5375 19.9005 19.7098 18.808 20.0485 17.7622L26.8003 11.0104C28.376 10.5003 30.0501 10.37 31.6858 10.6303C33.3215 10.8906 34.8724 11.534 36.212 12.5081C37.5516 13.4821 38.6418 14.7592 39.3936 16.235C40.1454 17.7108 40.5375 19.3435 40.538 20.9998H35.288V20.1984C35.2868 19.2179 34.8967 18.2778 34.2034 17.5845C33.5101 16.8911 32.5701 16.501 31.5895 16.4998H28.4864C27.5059 16.501 26.5658 16.8911 25.8725 17.5845C25.1792 18.2778 24.7891 19.2179 24.788 20.1984ZM33.038 18.7498C33.038 18.6782 33.0343 18.6076 33.0276 18.5376C33.2662 18.7436 33.4577 18.9985 33.5889 19.2851C33.7201 19.5717 33.788 19.8832 33.788 20.1984V20.9998H30.788C31.3845 20.9991 31.9564 20.7618 32.3782 20.34C32.8 19.9182 33.0373 19.3463 33.038 18.7498ZM29.288 19.4998C29.089 19.4998 28.8983 19.4208 28.7576 19.2801C28.617 19.1394 28.538 18.9487 28.538 18.7498C28.538 18.5509 28.617 18.3601 28.7576 18.2194C28.8983 18.0788 29.089 17.9998 29.288 17.9998H30.788C30.9869 17.9998 31.1776 18.0788 31.3183 18.2194C31.4589 18.3601 31.538 18.5509 31.538 18.7498C31.538 18.9487 31.4589 19.1394 31.3183 19.2801C31.1776 19.4208 30.9869 19.4998 30.788 19.4998H29.288ZM26.288 20.1984C26.2879 19.8832 26.3558 19.5717 26.487 19.2851C26.6182 18.9985 26.8097 18.7436 27.0483 18.5376C27.0417 18.6075 27.038 18.6782 27.038 18.7498C27.0387 19.3463 27.2759 19.9182 27.6977 20.34C28.1195 20.7618 28.6914 20.9991 29.288 20.9998H26.288V20.1984ZM31.5005 44.9998H27.0005V22.4998H31.5005V44.9998ZM42.7505 22.4998V44.9998H38.6723L42.4809 41.826C42.5836 41.7404 42.6615 41.629 42.7067 41.5033C42.7519 41.3775 42.7626 41.242 42.7379 41.1107C42.7131 40.9794 42.6537 40.8571 42.5658 40.7565C42.4779 40.6558 42.3648 40.5805 42.238 40.5382L37.738 39.0382C37.6252 39.0005 37.5051 38.9902 37.3876 39.0081C37.2701 39.026 37.1585 39.0716 37.062 39.1411C36.9656 39.2106 36.887 39.302 36.8328 39.4079C36.7787 39.5137 36.7504 39.6309 36.7505 39.7498V44.9998H33.0005V22.4998H42.7505ZM38.2505 43.3985V40.7904L40.486 41.5355L38.2505 43.3985ZM41.1328 13.3444L40.064 14.4132C38.9591 12.7371 37.4541 11.3626 35.6849 10.4138L36.9436 9.15511C37.2174 8.87425 37.5442 8.65055 37.9051 8.49699C38.266 8.34343 38.6538 8.26306 39.0461 8.26056C39.4383 8.25806 39.8271 8.33347 40.1899 8.48241C40.5528 8.63136 40.8824 8.85087 41.1598 9.12822C41.4371 9.40557 41.6566 9.73523 41.8056 10.0981C41.9545 10.4609 42.0299 10.8497 42.0274 11.242C42.0249 11.6342 41.9445 12.022 41.7909 12.3829C41.6374 12.7438 41.4137 13.0707 41.1328 13.3444Z" fill="url(#paint0_linear)"/>
<path d="M33.4131 15.75C33.6356 15.75 33.8531 15.684 34.0381 15.5604C34.2231 15.4368 34.3673 15.2611 34.4525 15.0555C34.5376 14.85 34.5599 14.6238 34.5165 14.4055C34.4731 14.1873 34.3659 13.9868 34.2086 13.8295C34.0513 13.6722 33.8508 13.565 33.6326 13.5216C33.4143 13.4782 33.1881 13.5005 32.9826 13.5856C32.777 13.6708 32.6013 13.815 32.4777 14C32.3541 14.185 32.2881 14.4025 32.2881 14.625C32.2884 14.9233 32.407 15.2092 32.618 15.4201C32.8289 15.6311 33.1148 15.7497 33.4131 15.75Z" fill="url(#paint1_linear)"/>
<path d="M26.6631 13.5C26.4406 13.5 26.2231 13.566 26.0381 13.6896C25.8531 13.8132 25.7089 13.9889 25.6237 14.1945C25.5386 14.4001 25.5163 14.6263 25.5597 14.8445C25.6031 15.0627 25.7103 15.2632 25.8676 15.4205C26.0249 15.5778 26.2254 15.685 26.4436 15.7284C26.6618 15.7718 26.888 15.7495 27.0936 15.6644C27.2992 15.5792 27.4749 15.435 27.5985 15.25C27.7221 15.065 27.7881 14.8475 27.7881 14.625C27.7878 14.3267 27.6691 14.0408 27.4582 13.8299C27.2473 13.619 26.9614 13.5003 26.6631 13.5Z" fill="url(#paint2_linear)"/>
<path d="M32.25 3H33.75V4.5H32.25V3Z" fill="url(#paint3_linear)"/>
<path d="M35.25 3H36.75V4.5H35.25V3Z" fill="url(#paint4_linear)"/>
<path d="M33.75 1.5H35.25V3H33.75V1.5Z" fill="url(#paint5_linear)"/>
<path d="M33.75 4.5H35.25V6H33.75V4.5Z" fill="url(#paint6_linear)"/>
<path d="M42 4.5H43.5V6H42V4.5Z" fill="url(#paint7_linear)"/>
<path d="M45 4.5H46.5V6H45V4.5Z" fill="url(#paint8_linear)"/>
<path d="M43.5 3H45V4.5H43.5V3Z" fill="url(#paint9_linear)"/>
<path d="M43.5 6H45V7.5H43.5V6Z" fill="url(#paint10_linear)"/>
<defs>
<linearGradient id="paint0_linear" x1="3.74902" y1="4.33759" x2="48.4578" y2="38.2939" gradientUnits="userSpaceOnUse">
<stop stop-color="#82BB58"/>
<stop offset="1" stop-color="#53A580"/>
</linearGradient>
<linearGradient id="paint1_linear" x1="32.2881" y1="13.6419" x2="34.5756" y2="15.5723" gradientUnits="userSpaceOnUse">
<stop stop-color="#82BB58"/>
<stop offset="1" stop-color="#53A580"/>
</linearGradient>
<linearGradient id="paint2_linear" x1="25.5381" y1="13.6419" x2="27.8256" y2="15.5722" gradientUnits="userSpaceOnUse">
<stop stop-color="#82BB58"/>
<stop offset="1" stop-color="#53A580"/>
</linearGradient>
<linearGradient id="paint3_linear" x1="32.25" y1="3.09459" x2="33.775" y2="4.38149" gradientUnits="userSpaceOnUse">
<stop stop-color="#82BB58"/>
<stop offset="1" stop-color="#53A580"/>
</linearGradient>
<linearGradient id="paint4_linear" x1="35.25" y1="3.09459" x2="36.775" y2="4.38149" gradientUnits="userSpaceOnUse">
<stop stop-color="#82BB58"/>
<stop offset="1" stop-color="#53A580"/>
</linearGradient>
<linearGradient id="paint5_linear" x1="33.75" y1="1.59459" x2="35.275" y2="2.88149" gradientUnits="userSpaceOnUse">
<stop stop-color="#82BB58"/>
<stop offset="1" stop-color="#53A580"/>
</linearGradient>
<linearGradient id="paint6_linear" x1="33.75" y1="4.59459" x2="35.275" y2="5.88149" gradientUnits="userSpaceOnUse">
<stop stop-color="#82BB58"/>
<stop offset="1" stop-color="#53A580"/>
</linearGradient>
<linearGradient id="paint7_linear" x1="42" y1="4.59459" x2="43.525" y2="5.88149" gradientUnits="userSpaceOnUse">
<stop stop-color="#82BB58"/>
<stop offset="1" stop-color="#53A580"/>
</linearGradient>
<linearGradient id="paint8_linear" x1="45" y1="4.59459" x2="46.525" y2="5.88149" gradientUnits="userSpaceOnUse">
<stop stop-color="#82BB58"/>
<stop offset="1" stop-color="#53A580"/>
</linearGradient>
<linearGradient id="paint9_linear" x1="43.5" y1="3.09459" x2="45.025" y2="4.38149" gradientUnits="userSpaceOnUse">
<stop stop-color="#82BB58"/>
<stop offset="1" stop-color="#53A580"/>
</linearGradient>
<linearGradient id="paint10_linear" x1="43.5" y1="6.09459" x2="45.025" y2="7.38149" gradientUnits="userSpaceOnUse">
<stop stop-color="#82BB58"/>
<stop offset="1" stop-color="#53A580"/>
</linearGradient>
</defs>
</svg>
