<svg width="44" height="44" viewBox="0 0 44 44" fill="none" xmlns="http://www.w3.org/2000/svg">
<path d="M42.6279 21.3151H22.6904V16.4536C23.8358 16.2882 24.8833 15.7156 25.6409 14.8407C26.3985 13.9659 26.8155 12.8473 26.8155 11.6901C26.8155 10.5328 26.3985 9.41424 25.6409 8.53939C24.8833 7.66454 23.8358 7.09196 22.6904 6.92655V1.37756C22.6904 1.19523 22.618 1.02036 22.4891 0.891428C22.3601 0.762496 22.1853 0.690063 22.0029 0.690063H4.81543C3.72177 0.691224 2.67323 1.12619 1.8999 1.89953C1.12656 2.67287 0.69159 3.7214 0.69043 4.81506V39.1901C0.69159 40.2837 1.12656 41.3323 1.8999 42.1056C2.67323 42.8789 3.72177 43.3139 4.81543 43.3151H39.1904C40.2841 43.3139 41.3326 42.8789 42.106 42.1056C42.8793 41.3323 43.3143 40.2837 43.3154 39.1901V22.0026C43.3154 21.8202 43.243 21.6454 43.1141 21.5164C42.9851 21.3875 42.8103 21.3151 42.6279 21.3151ZM2.06543 4.81506C2.06625 4.08597 2.35624 3.38697 2.87179 2.87142C3.38734 2.35588 4.08634 2.06588 4.81543 2.06506H21.3154V7.56506C21.3154 7.7474 21.3879 7.92227 21.5168 8.0512C21.6457 8.18013 21.8206 8.25256 22.0029 8.25256C22.9146 8.25256 23.789 8.61473 24.4336 9.25938C25.0783 9.90404 25.4404 10.7784 25.4404 11.6901C25.4404 12.6017 25.0783 13.4761 24.4336 14.1207C23.789 14.7654 22.9146 15.1276 22.0029 15.1276C21.8206 15.1276 21.6457 15.2 21.5168 15.3289C21.3879 15.4579 21.3154 15.6327 21.3154 15.8151V21.3151H16.4531C16.2878 20.1698 15.7154 19.1224 14.8407 18.3648C13.966 17.6073 12.8476 17.1903 11.6904 17.1903C10.5333 17.1903 9.41488 17.6073 8.54018 18.3648C7.66547 19.1224 7.09304 20.1698 6.92777 21.3151H2.06543V4.81506ZM21.3154 41.9401H4.81543C4.08634 41.9392 3.38734 41.6493 2.87179 41.1337C2.35624 40.6182 2.06625 39.9192 2.06543 39.1901V22.6901H7.56543C7.74777 22.6901 7.92263 22.6176 8.05157 22.4887C8.1805 22.3598 8.25293 22.1849 8.25293 22.0026C8.25293 21.0909 8.61509 20.2165 9.25975 19.5719C9.90441 18.9272 10.7787 18.5651 11.6904 18.5651C12.6021 18.5651 13.4765 18.9272 14.1211 19.5719C14.7658 20.2165 15.1279 21.0909 15.1279 22.0026C15.1279 22.1849 15.2004 22.3598 15.3293 22.4887C15.4582 22.6176 15.6331 22.6901 15.8154 22.6901H21.3154V27.5515C20.17 27.717 19.1226 28.2895 18.365 29.1644C17.6074 30.0392 17.1904 31.1578 17.1904 32.3151C17.1904 33.4723 17.6074 34.5909 18.365 35.4657C19.1226 36.3406 20.17 36.9132 21.3154 37.0786V41.9401ZM41.9404 39.1901C41.9395 39.9191 41.6494 40.618 41.1339 41.1336C40.6184 41.6491 39.9195 41.9391 39.1904 41.9401H22.6904V36.4401C22.6904 36.2577 22.618 36.0829 22.4891 35.9539C22.3601 35.825 22.1853 35.7526 22.0029 35.7526C21.0912 35.7526 20.2169 35.3904 19.5723 34.7457C18.9276 34.1011 18.5654 33.2267 18.5654 32.3151C18.5654 31.4034 18.9276 30.529 19.5723 29.8844C20.2169 29.2397 21.0912 28.8776 22.0029 28.8776C22.1853 28.8776 22.3601 28.8051 22.4891 28.6762C22.618 28.5473 22.6904 28.3724 22.6904 28.1901V22.6901H41.9404V39.1901Z" fill="url(#paint0_linear)"/>
<path d="M31.6279 25.4452H36.4404C36.6228 25.4452 36.7976 25.3728 36.9266 25.2438C37.0555 25.1149 37.1279 24.94 37.1279 24.7577C37.1279 24.5754 37.0555 24.4005 36.9266 24.2716C36.7976 24.1426 36.6228 24.0702 36.4404 24.0702H31.6279C31.4456 24.0702 31.2707 24.1426 31.1418 24.2716C31.0129 24.4005 30.9404 24.5754 30.9404 24.7577C30.9404 24.94 31.0129 25.1149 31.1418 25.2438C31.2707 25.3728 31.4456 25.4452 31.6279 25.4452Z" fill="url(#paint1_linear)"/>
<path d="M39.1875 25.4452H39.875C40.0573 25.4452 40.2322 25.3728 40.3611 25.2438C40.4901 25.1149 40.5625 24.94 40.5625 24.7577C40.5625 24.5754 40.4901 24.4005 40.3611 24.2716C40.2322 24.1426 40.0573 24.0702 39.875 24.0702H39.1875C39.0052 24.0702 38.8303 24.1426 38.7014 24.2716C38.5724 24.4005 38.5 24.5754 38.5 24.7577C38.5 24.94 38.5724 25.1149 38.7014 25.2438C38.8303 25.3728 39.0052 25.4452 39.1875 25.4452Z" fill="url(#paint2_linear)"/>
<defs>
<linearGradient id="paint0_linear" x1="0.69043" y1="3.37813" x2="44.0261" y2="39.9473" gradientUnits="userSpaceOnUse">
<stop stop-color="#82BB58"/>
<stop offset="1" stop-color="#53A580"/>
</linearGradient>
<linearGradient id="paint1_linear" x1="30.9404" y1="24.1569" x2="31.6389" y2="26.8092" gradientUnits="userSpaceOnUse">
<stop stop-color="#82BB58"/>
<stop offset="1" stop-color="#53A580"/>
</linearGradient>
<linearGradient id="paint2_linear" x1="38.5" y1="24.1569" x2="39.8796" y2="25.9032" gradientUnits="userSpaceOnUse">
<stop stop-color="#82BB58"/>
<stop offset="1" stop-color="#53A580"/>
</linearGradient>
</defs>
</svg>
