<svg width="48" height="48" viewBox="0 0 48 48" fill="none" xmlns="http://www.w3.org/2000/svg">
<path d="M43.5029 28.5056V26.2556C43.5019 25.2614 43.1065 24.3081 42.4035 23.6051C41.7004 22.902 40.7472 22.5066 39.7529 22.5056H27.0029C26.4205 22.5056 25.846 22.6414 25.3252 22.9022C24.8044 23.1631 24.3517 23.5419 24.0029 24.0084C23.6542 23.5419 23.2014 23.1631 22.6807 22.9022C22.1599 22.6414 21.5854 22.5056 21.0029 22.5056H8.25293C7.25867 22.5066 6.30542 22.902 5.60238 23.6051C4.89933 24.3081 4.50392 25.2614 4.50293 26.2556V28.5056C3.50867 28.5066 2.55542 28.902 1.85238 29.6051C1.14933 30.3081 0.753922 31.2614 0.75293 32.2556V45.7556C0.75293 45.9545 0.831947 46.1453 0.9726 46.2859C1.11325 46.4266 1.30402 46.5056 1.50293 46.5056H46.5029C46.7018 46.5056 46.8926 46.4266 47.0333 46.2859C47.1739 46.1453 47.2529 45.9545 47.2529 45.7556V32.2556C47.2519 31.2614 46.8565 30.3081 46.1535 29.6051C45.4504 28.902 44.4972 28.5066 43.5029 28.5056ZM8.25293 45.0056H2.25293V32.2556C2.25372 31.6591 2.49103 31.0873 2.91282 30.6655C3.3346 30.2437 3.90644 30.0064 4.50293 30.0056H6.00293C6.59942 30.0064 7.17126 30.2437 7.59304 30.6655C8.01483 31.0873 8.25214 31.6591 8.25293 32.2556V45.0056ZM6.00293 28.5056V26.2556C6.00372 25.6591 6.24103 25.0873 6.66282 24.6655C7.0846 24.2437 7.65644 24.0064 8.25293 24.0056H21.0029C21.5994 24.0064 22.1713 24.2437 22.593 24.6655C23.0148 25.0873 23.2521 25.6591 23.2529 26.2556V35.2575C22.6047 34.7688 21.8147 34.5049 21.0029 34.5056H12.0029C11.1911 34.5049 10.4012 34.7688 9.75293 35.2575V32.2556C9.75194 31.2614 9.35653 30.3081 8.65348 29.6051C7.95044 28.902 6.99719 28.5066 6.00293 28.5056ZM23.2529 38.2556V40.5056H9.75293V38.2556C9.75372 37.6591 9.99103 37.0873 10.4128 36.6655C10.8346 36.2437 11.4064 36.0064 12.0029 36.0056H21.0029C21.5994 36.0064 22.1713 36.2437 22.593 36.6655C23.0148 37.0873 23.2521 37.6591 23.2529 38.2556ZM38.2529 45.0056H9.75293V42.0056H38.2529V45.0056ZM38.2529 40.5056H24.7529V38.2556C24.7537 37.6591 24.991 37.0873 25.4128 36.6655C25.8346 36.2437 26.4064 36.0064 27.0029 36.0056H36.0029C36.5994 36.0064 37.1713 36.2437 37.593 36.6655C38.0148 37.0873 38.2521 37.6591 38.2529 38.2556V40.5056ZM38.2529 32.2556V35.2575C37.6047 34.7688 36.8147 34.5049 36.0029 34.5056H27.0029C26.1911 34.5049 25.4012 34.7688 24.7529 35.2575V26.2556C24.7537 25.6591 24.991 25.0873 25.4128 24.6655C25.8346 24.2437 26.4064 24.0064 27.0029 24.0056H39.7529C40.3494 24.0064 40.9213 24.2437 41.343 24.6655C41.7648 25.0873 42.0021 25.6591 42.0029 26.2556V28.5056C41.0087 28.5066 40.0554 28.902 39.3524 29.6051C38.6493 30.3081 38.2539 31.2614 38.2529 32.2556ZM45.7529 45.0056H39.7529V32.2556C39.7537 31.6591 39.991 31.0873 40.4128 30.6655C40.8346 30.2437 41.4064 30.0064 42.0029 30.0056H43.5029C44.0994 30.0064 44.6713 30.2437 45.093 30.6655C45.5148 31.0873 45.7521 31.6591 45.7529 32.2556V45.0056Z" fill="url(#paint0_linear)"/>
<path d="M35.25 1.50562H12.75C12.5511 1.50562 12.3603 1.58463 12.2197 1.72529C12.079 1.86594 12 2.0567 12 2.25562V18.7556C12 18.9545 12.079 19.1453 12.2197 19.2859C12.3603 19.4266 12.5511 19.5056 12.75 19.5056H35.25C35.4489 19.5056 35.6397 19.4266 35.7803 19.2859C35.921 19.1453 36 18.9545 36 18.7556V2.25562C36 2.0567 35.921 1.86594 35.7803 1.72529C35.6397 1.58463 35.4489 1.50562 35.25 1.50562ZM34.5 18.0056H13.5V3.00562H34.5V18.0056Z" fill="url(#paint1_linear)"/>
<path d="M33.0029 3.75293H15.0029C14.804 3.75293 14.6133 3.83195 14.4726 3.9726C14.3319 4.11325 14.2529 4.30402 14.2529 4.50293V16.5029C14.2529 16.7018 14.3319 16.8926 14.4726 17.0333C14.6133 17.1739 14.804 17.2529 15.0029 17.2529H33.0029C33.2018 17.2529 33.3926 17.1739 33.5333 17.0333C33.6739 16.8926 33.7529 16.7018 33.7529 16.5029V4.50293C33.7529 4.30402 33.6739 4.11325 33.5333 3.9726C33.3926 3.83195 33.2018 3.75293 33.0029 3.75293ZM18.1042 15.7529L20.2529 13.1748L22.4017 15.7529H18.1042ZM24.3545 15.7529L22.7917 13.8779L25.847 10.2114L30.0029 15.7529H24.3545ZM32.2529 15.7529H31.8779L26.4779 8.55293C26.41 8.46232 26.3225 8.38826 26.2218 8.33631C26.1212 8.28437 26.0101 8.25588 25.8969 8.253C25.7837 8.25011 25.6713 8.2729 25.5682 8.31964C25.465 8.36639 25.3738 8.43589 25.3014 8.52293L21.8157 12.7061L20.8295 11.5229C20.7591 11.4384 20.6709 11.3704 20.5713 11.3238C20.4716 11.2771 20.3629 11.2529 20.2529 11.2529C20.1429 11.2529 20.0342 11.2771 19.9346 11.3238C19.835 11.3704 19.7468 11.4384 19.6764 11.5229L16.1514 15.7529H15.7529V5.25293H32.2529V15.7529Z" fill="url(#paint2_linear)"/>
<path d="M20.25 10.5C20.695 10.5 21.13 10.368 21.5 10.1208C21.87 9.87357 22.1584 9.52217 22.3287 9.11104C22.499 8.6999 22.5436 8.2475 22.4568 7.81105C22.3699 7.37459 22.1557 6.97368 21.841 6.65901C21.5263 6.34434 21.1254 6.13005 20.689 6.04323C20.2525 5.95642 19.8001 6.00097 19.389 6.17127C18.9778 6.34157 18.6264 6.62996 18.3792 6.99997C18.132 7.36998 18 7.80499 18 8.25C18.0007 8.84653 18.2379 9.41844 18.6597 9.84025C19.0816 10.2621 19.6535 10.4993 20.25 10.5ZM20.25 7.5C20.3983 7.5 20.5433 7.54399 20.6667 7.6264C20.79 7.70881 20.8861 7.82594 20.9429 7.96299C20.9997 8.10003 21.0145 8.25083 20.9856 8.39632C20.9566 8.5418 20.8852 8.67544 20.7803 8.78033C20.6754 8.88522 20.5418 8.95665 20.3963 8.98559C20.2508 9.01453 20.1 8.99967 19.963 8.94291C19.8259 8.88614 19.7088 8.79001 19.6264 8.66668C19.544 8.54334 19.5 8.39834 19.5 8.25C19.5002 8.05116 19.5793 7.86052 19.7199 7.71992C19.8605 7.57931 20.0512 7.50022 20.25 7.5Z" fill="url(#paint3_linear)"/>
<defs>
<linearGradient id="paint0_linear" x1="0.75293" y1="24.0191" x2="22.7885" y2="60.0468" gradientUnits="userSpaceOnUse">
<stop stop-color="#82BB58"/>
<stop offset="1" stop-color="#53A580"/>
</linearGradient>
<linearGradient id="paint1_linear" x1="12" y1="2.64075" x2="30.4361" y2="23.3841" gradientUnits="userSpaceOnUse">
<stop stop-color="#82BB58"/>
<stop offset="1" stop-color="#53A580"/>
</linearGradient>
<linearGradient id="paint2_linear" x1="14.2529" y1="4.60428" x2="27.9078" y2="21.2484" gradientUnits="userSpaceOnUse">
<stop stop-color="#82BB58"/>
<stop offset="1" stop-color="#53A580"/>
</linearGradient>
<linearGradient id="paint3_linear" x1="18" y1="6.28378" x2="22.575" y2="10.1445" gradientUnits="userSpaceOnUse">
<stop stop-color="#82BB58"/>
<stop offset="1" stop-color="#53A580"/>
</linearGradient>
</defs>
</svg>
