<svg width="17" height="8" viewBox="0 0 17 8" fill="none" xmlns="http://www.w3.org/2000/svg">
<path d="M0.194777 4.45668C0.194977 4.45687 0.195143 4.4571 0.195376 4.45729L3.66523 7.81213C3.92518 8.06345 4.34563 8.06252 4.60438 7.80994C4.8631 7.55739 4.8621 7.1489 4.60216 6.89755L2.27249 4.64516L16.3359 4.64516C16.7027 4.64516 17 4.35632 17 4C17 3.64368 16.7027 3.35484 16.3359 3.35484L2.27253 3.35484L4.60213 1.10245C4.86207 0.851095 4.86307 0.442611 4.60435 0.190062C4.3456 -0.0625507 3.92511 -0.0634214 3.6652 0.187869L0.195341 3.54271C0.195143 3.5429 0.194977 3.54313 0.194744 3.54332C-0.0653359 3.79551 -0.0645062 4.20532 0.194777 4.45668Z" fill="#0D1018"/>
</svg>
