<svg width="22" height="17" viewBox="0 0 22 17" fill="none" xmlns="http://www.w3.org/2000/svg">
<path d="M21.9398 7.64905L20.2341 4.09141C20.1278 3.86981 19.8979 3.72793 19.6451 3.72793H14.2811V0.626683C14.2811 0.280587 13.9906 0 13.6321 0H0.649052C0.290516 0 0 0.280587 0 0.626683V11.1734C0 11.5195 0.290516 11.8001 0.649052 11.8001H1.92041C1.81172 12.0299 1.72959 12.2736 1.67819 12.5281H0.649052C0.290516 12.5281 0 12.8087 0 13.1548C0 13.5009 0.290516 13.7814 0.649052 13.7814H1.67827C1.98203 15.2868 3.35767 16.4268 5.00454 16.4268C6.65114 16.4268 8.02669 15.2867 8.33045 13.7814H13.7475C14.0513 15.2868 15.4268 16.4268 17.0736 16.4268C18.7201 16.4268 20.0956 15.2867 20.3994 13.7814H21.3509C21.7095 13.7814 22 13.5009 22 13.1548V7.91234C21.9998 7.82134 21.9794 7.73152 21.9398 7.64905ZM13.7473 12.528H8.33036C8.27905 12.2736 8.19683 12.0298 8.08814 11.8H13.6322C13.8042 11.8 13.9602 11.7349 14.0764 11.6294C13.9237 11.9077 13.8116 12.2096 13.7473 12.528ZM1.2981 1.25337H12.983V10.5468H7.04844C6.47979 10.1302 5.77163 9.88246 5.00445 9.88246C4.23727 9.88246 3.52894 10.1302 2.96028 10.5468H1.2981V1.25337ZM5.00445 15.1733C3.85139 15.1733 2.91329 14.2677 2.91329 13.1547C2.91329 12.0414 3.85139 11.1357 5.00445 11.1357C6.15734 11.1357 7.09526 12.0414 7.09526 13.1547C7.09526 14.2677 6.15734 15.1733 5.00445 15.1733ZM17.0734 15.1733C15.9205 15.1733 14.9825 14.2677 14.9825 13.1547C14.9825 12.0414 15.9205 11.1357 17.0734 11.1357C18.2262 11.1357 19.1641 12.0414 19.1641 13.1547C19.1641 14.2677 18.2262 15.1733 17.0734 15.1733ZM20.7017 12.528H20.3992C20.0954 11.0224 18.7201 9.88238 17.0734 9.88238C15.9021 9.88238 14.8679 10.4593 14.2589 11.3341C14.2729 11.2827 14.2812 11.2291 14.2812 11.1734V4.9813H19.2304L20.7017 8.05029V12.528Z" fill="#DBE0E1"/>
</svg>
