<svg width="22" height="21" viewBox="0 0 22 21" fill="none" xmlns="http://www.w3.org/2000/svg">
<path d="M10.0831 20.2014C4.52366 20.2014 0 15.6715 0 10.1042C0 4.53694 4.52366 0.00688934 10.0831 0.00688934C12.0163 0.00688934 13.8971 0.558523 15.5223 1.60313C15.8414 1.80886 15.9349 2.23477 15.7294 2.55513C15.5233 2.87549 15.0988 2.9681 14.7789 2.76254C13.3765 1.86012 11.7523 1.38379 10.0831 1.38379C5.28163 1.38379 1.37496 5.29599 1.37496 10.1042C1.37496 14.9123 5.28163 18.8245 10.0831 18.8245C14.8843 18.8245 18.791 14.9123 18.791 10.1042C18.791 9.81679 18.7773 9.53224 18.7507 9.25239C18.7142 8.8732 18.9909 8.53721 19.3686 8.50057C19.7481 8.46561 20.0826 8.74109 20.1193 9.11927C20.1504 9.44332 20.166 9.77192 20.166 10.1042C20.166 15.6715 15.6425 20.2014 10.0831 20.2014Z" fill="url(#paint0_linear)"/>
<path d="M11.229 12.399C11.0531 12.399 10.877 12.3319 10.7433 12.1971L6.6184 8.06642C6.34986 7.79733 6.34986 7.36133 6.6184 7.0924C6.88695 6.82348 7.32233 6.82348 7.59088 7.0924L11.23 10.7367L20.8262 1.1268C21.0949 0.857871 21.5303 0.857871 21.7988 1.1268C22.0674 1.39572 22.0674 1.83172 21.7988 2.10064L11.7157 12.198C11.581 12.3319 11.4051 12.399 11.229 12.399Z" fill="url(#paint1_linear)"/>
<defs>
<linearGradient id="paint0_linear" x1="2.55465e-07" y1="1.28041" x2="20.5263" y2="18.5773" gradientUnits="userSpaceOnUse">
<stop stop-color="#82BB58"/>
<stop offset="1" stop-color="#53A580"/>
</linearGradient>
<linearGradient id="paint1_linear" x1="6.41699" y1="1.64868" x2="18.1415" y2="15.086" gradientUnits="userSpaceOnUse">
<stop stop-color="#82BB58"/>
<stop offset="1" stop-color="#53A580"/>
</linearGradient>
</defs>
</svg>
