<svg width="47" height="18" viewBox="0 0 47 18" fill="none" xmlns="http://www.w3.org/2000/svg">
<path d="M14.0513 9.75888C14.0513 10.5177 14.2666 11.1291 14.6967 11.5926C15.1268 12.0563 15.7724 12.2882 16.6328 12.2882C17.1921 12.2882 17.6902 12.1512 18.128 11.8772C18.5652 11.6032 18.9346 11.2343 19.2357 10.7705C19.5369 10.3069 19.7661 9.77668 19.9241 9.17933C20.0817 8.58207 20.1608 7.96036 20.1608 7.31392C20.1608 6.42867 19.9599 5.75421 19.5585 5.29055C19.1567 4.82698 18.6335 4.59492 17.9883 4.59492C17.5434 4.59492 17.1239 4.67587 16.7295 4.8373C16.3351 4.999 15.9767 5.22385 15.654 5.51184C15.3312 5.79993 15.0587 6.1372 14.8366 6.52357C14.6141 6.91021 14.4528 7.32788 14.3525 7.77749C14.3525 7.77749 14.0513 9.04847 14.0513 9.75888ZM15.1054 4.4053C15.5498 3.85732 16.0805 3.42195 16.6974 3.09846C17.3137 2.77551 18.0096 2.61381 18.7839 2.61381C19.4724 2.61381 20.064 2.73691 20.5588 2.98265C21.0535 3.22849 21.4623 3.56586 21.785 3.9942C22.1077 4.42309 22.3443 4.92526 22.495 5.50144C22.6455 6.07771 22.7208 6.68883 22.7208 7.33509C22.7208 8.27656 22.5811 9.16537 22.3014 10.0011C22.0215 10.8374 21.6307 11.5714 21.1288 12.2039C20.6267 12.836 20.0317 13.3349 19.3433 13.7002C18.655 14.0655 17.8948 14.2484 17.063 14.2484C16.2456 14.2484 15.5427 14.1007 14.9549 13.8056C14.3667 13.5104 13.8647 13.0259 13.449 12.3514L12.2228 18H9.77032L13.0189 2.95108H15.4067L15.1054 4.4053Z" fill="#212A4C"/>
<path d="M31.3104 8.70509L29.6539 8.78941C28.9368 8.83139 28.3345 8.9053 27.8469 9.01052C27.359 9.11601 26.9719 9.26028 26.6852 9.4427C26.3982 9.62557 26.1938 9.84677 26.072 10.1065C25.95 10.3667 25.8893 10.6651 25.8893 11.0024C25.8893 11.368 26.0182 11.6804 26.2764 11.9402C26.5347 12.2007 26.9289 12.3301 27.4596 12.3301C27.9041 12.3301 28.3273 12.2638 28.7288 12.1298C29.1303 11.9965 29.4925 11.8139 29.8154 11.5819C30.1378 11.3501 30.4101 11.0693 30.6326 10.739C30.855 10.4089 31.0092 10.0402 31.0952 9.63232L31.3104 8.70509ZM26.6852 14.1851C25.6958 14.1851 24.9068 13.9284 24.319 13.4156C23.7307 12.903 23.4369 12.1617 23.4369 11.192C23.4369 10.4055 23.609 9.7588 23.9532 9.25307C24.2974 8.74707 24.7561 8.34656 25.3298 8.05144C25.9034 7.75642 26.5634 7.5459 27.3091 7.41933C28.0548 7.29285 28.829 7.21574 29.6324 7.18736L31.6762 7.10295L31.7405 6.76613C31.7837 6.51291 31.8052 6.27409 31.8052 6.04925C31.8052 5.54352 31.6545 5.15021 31.3534 4.86906C31.0522 4.58791 30.5574 4.44738 29.869 4.44738C29.0946 4.44738 28.5064 4.54949 28.105 4.7529C27.7033 4.95703 27.3952 5.35362 27.1799 5.94394L24.9644 5.71197C25.3228 4.58791 25.9248 3.79072 26.7712 3.31967C27.6173 2.84907 28.736 2.61373 30.1273 2.61373C31.4321 2.61373 32.429 2.90547 33.1173 3.48839C33.8057 4.07178 34.1571 4.88996 34.1716 5.94394C34.1716 6.14077 34.1571 6.34445 34.1286 6.55525C34.0996 6.76613 34.0639 6.98396 34.0209 7.20853L32.5581 13.911H30.2347L30.5361 12.4778C30.0198 12.9838 29.4746 13.3947 28.901 13.7107C28.3273 14.0269 27.5887 14.1851 26.6852 14.1851Z" fill="#212A4C"/>
<path d="M35.5985 2.95099H38.3092L39.729 10.8547L44.2035 2.95099H47L39.7934 14.5855C39.4494 15.1471 39.1299 15.6426 38.8363 16.0714C38.542 16.4999 38.2338 16.8546 37.9112 17.1357C37.5884 17.4165 37.2335 17.6312 36.8462 17.7786C36.459 17.9263 35.9999 18 35.4694 18C35.1109 18 34.7846 17.9682 34.4907 17.9051C34.1967 17.842 33.9063 17.7541 33.6195 17.6417L34.2649 15.829C34.4225 15.8851 34.6017 15.9375 34.8025 15.987C35.0031 16.0363 35.2183 16.061 35.448 16.061C35.8784 16.061 36.2257 15.945 36.4912 15.713C36.7565 15.4813 37.054 15.0912 37.3841 14.5432L38.0294 13.4686L35.5985 2.95099Z" fill="#212A4C"/>
<path d="M6.59511 10.4123C6.56615 10.553 6.54146 10.6757 6.51986 10.781C6.49825 10.8865 6.48763 10.9955 6.48763 11.1077C6.48763 11.5156 6.59139 11.7964 6.79946 11.9508C7.00734 12.1058 7.29057 12.1828 7.64916 12.1828C7.90743 12.1828 8.14744 12.1651 8.37004 12.1298C8.59209 12.0951 8.79643 12.0493 8.98308 11.9932L9.34883 13.7846C8.66045 14.0091 7.90743 14.1218 7.08986 14.1218C6.10036 14.1218 5.34008 13.9043 4.80965 13.4685C4.27886 13.0332 4.01379 12.3724 4.01379 11.4871C4.01379 11.0939 4.06371 10.7074 4.1643 10.328L5.34743 4.84781H0L0.40869 2.95101H5.75622L6.40157 4.673e-05H8.85399L8.20864 2.95101H11.2077L10.799 4.84781H7.79976L6.59511 10.4123Z" fill="#212A4C"/>
</svg>
