<svg width="24" height="21" viewBox="0 0 24 21" fill="none" xmlns="http://www.w3.org/2000/svg">
<path d="M21.4289 1.81509C21.4697 1.57031 21.3777 1.32222 21.1871 1.16303C20.9965 1.00383 20.7357 0.957326 20.5017 1.04079L0.874397 8.04079C0.609951 8.1351 0.427386 8.37791 0.410461 8.65782C0.393535 8.93772 0.545515 9.2007 0.796675 9.32611L6.40446 12.1261C6.62946 12.2384 6.89748 12.2218 7.10678 12.0824L11.7618 8.98341L8.97448 12.4627C8.85174 12.6159 8.79903 12.8135 8.82917 13.0074C8.85931 13.2013 8.96954 13.3736 9.13302 13.4824L17.5447 19.0824C17.7426 19.2142 17.9939 19.2367 18.2122 19.1423C18.4304 19.0479 18.5859 18.8494 18.625 18.6151L21.4289 1.81509Z" fill="#373F41"/>
</svg>
