<svg width="30" height="30" viewBox="0 0 30 30" fill="none" xmlns="http://www.w3.org/2000/svg">
<path d="M14.7708 9.88889C12.0746 9.88889 9.88889 12.0746 9.88889 14.7708C9.88889 17.4671 12.0746 19.6528 14.7708 19.6528C17.4671 19.6528 19.6528 17.4671 19.6528 14.7708C19.6528 12.0746 17.4671 9.88889 14.7708 9.88889Z" fill="#373F41"/>
<path fill-rule="evenodd" clip-rule="evenodd" d="M8.9125 0.125C4.0593 0.125 0.125 4.0593 0.125 8.9125V20.6292C0.125 25.4824 4.0593 29.4167 8.9125 29.4167H20.6292C25.4824 29.4167 29.4167 25.4824 29.4167 20.6292V8.9125C29.4167 4.0593 25.4824 0.125 20.6292 0.125H8.9125ZM7.93611 14.7708C7.93611 10.9961 10.9961 7.93611 14.7708 7.93611C18.5455 7.93611 21.6056 10.9961 21.6056 14.7708C21.6056 18.5455 18.5455 21.6056 14.7708 21.6056C10.9961 21.6056 7.93611 18.5455 7.93611 14.7708ZM21.6056 7.93611H23.5583V5.98333H21.6056V7.93611Z" fill="#373F41"/>
</svg>
