<svg width="462" height="334" viewBox="0 0 462 334" fill="none" xmlns="http://www.w3.org/2000/svg">
<path d="M33.9062 280.25L38.8984 280.25C41.4609 280.25 43.3594 280.93 44.5937 282.289C45.8125 283.633 46.4219 285.727 46.4219 288.57L46.4219 291.687C46.4219 294.859 45.7266 297.062 44.3359 298.297C42.9453 299.516 40.3281 300.125 36.4844 300.125L34.7266 300.125L34.7266 296.539L37.6562 296.539C39.6875 296.539 41.0937 296.195 41.875 295.508C42.6406 294.805 43.0234 293.562 43.0234 291.781L43.0234 288.359C43.0234 286.703 42.6953 285.555 42.0391 284.914C41.3672 284.273 40.1406 283.953 38.3594 283.953L35.3828 283.953C34.4609 283.953 33.7891 283.992 33.3672 284.07C32.9297 284.148 32.5312 284.281 32.1719 284.469C31.2344 284.937 30.4922 286.914 29.9453 290.398C29.8359 291.102 29.75 291.656 29.6875 292.062C29.6562 292.187 29.625 292.352 29.5937 292.555C29.2031 294.805 28.8281 296.227 28.4687 296.82C27.9062 297.727 27.1484 298.391 26.1953 298.812C25.2422 299.234 24.0547 299.445 22.6328 299.445L18.2969 299.445C15.7344 299.445 13.8437 298.773 12.625 297.43C11.3906 296.07 10.7734 293.977 10.7734 291.148L10.7734 288.664C10.7734 285.633 11.4531 283.477 12.8125 282.195C14.1719 280.898 16.4687 280.25 19.7031 280.25L20.7109 280.25L20.7109 283.859L19.5625 283.859C17.5156 283.859 16.1172 284.195 15.3672 284.867C14.6016 285.539 14.2187 286.773 14.2187 288.57L14.2187 291.383C14.2187 293.055 14.5469 294.211 15.2031 294.852C15.8594 295.492 17.0703 295.812 18.8359 295.812L22.5859 295.812C24.5078 295.812 25.6953 294.211 26.1484 291.008C26.2578 290.273 26.3437 289.695 26.4062 289.273C27 285.633 27.8281 283.219 28.8906 282.031C29.9375 280.844 31.6094 280.25 33.9062 280.25ZM46 273.492L42.7891 273.492L24.5547 263.226L24.5547 272.437L21.6719 272.437L21.6719 260.085L24.8359 260.085L43.1172 270.374L43.1172 260.085L46 260.085L46 273.492ZM46 252.6L10.5859 252.6L10.5859 249.483L31.2109 249.483L31.2109 248.007L21.6719 241.749L21.6719 238.35L32.6172 245.546L46 236.921L46 240.6L34.4219 248.007L34.4219 249.483L46 249.483L46 252.6ZM46 231.897L21.6719 231.897L21.6719 228.779L46 228.779L46 231.897ZM15.2734 231.897L11.1953 231.897L11.1953 228.779L15.2734 228.779L15.2734 231.897ZM31.3984 217.31L31.3984 207.724L29.875 207.724C27.625 207.724 26.1016 208.068 25.3047 208.755C24.5078 209.427 24.1094 210.685 24.1094 212.529C24.1094 214.357 24.5156 215.615 25.3281 216.302C26.125 216.974 27.6406 217.31 29.875 217.31L31.3984 217.31ZM34.4219 217.31L36.7422 217.31C39.5703 217.31 41.375 216.997 42.1562 216.372C42.9219 215.747 43.3047 214.497 43.3047 212.622C43.3047 210.654 43.0156 209.318 42.4375 208.615C41.8594 207.896 40.7891 207.537 39.2266 207.537L38.4531 207.537L38.4531 204.654L39.2734 204.654C41.8047 204.654 43.6328 205.279 44.7578 206.529C45.8672 207.763 46.4219 209.794 46.4219 212.622C46.4219 215.576 45.7031 217.654 44.2656 218.857C42.8281 220.044 40.3047 220.638 36.6953 220.638L30.9297 220.638C27.3203 220.638 24.8047 220.044 23.3828 218.857C21.9453 217.669 21.2266 215.576 21.2266 212.576C21.2266 209.607 21.9375 207.537 23.3594 206.365C24.7812 205.193 27.3047 204.607 30.9297 204.607L34.4219 204.607L34.4219 217.31ZM46 196.63L30.2031 196.63L32.0312 199.419L29.6406 199.419L27.7187 196.63L10.5859 196.63L10.5859 193.512L26.125 193.512L24.25 190.723L26.6641 190.723L28.6328 193.512L46 193.512L46 196.63ZM46 184.551L10.5859 184.551L10.5859 181.434L31.2109 181.434L31.2109 179.957L21.6719 173.699L21.6719 170.301L32.6172 177.496L46 168.871L46 172.551L34.4219 179.957L34.4219 181.434L46 181.434L46 184.551ZM30.9297 160.824L36.7422 160.824C39.5234 160.824 41.3203 160.503 42.1328 159.863C42.9453 159.222 43.3516 157.98 43.3516 156.136C43.3516 154.292 42.9375 153.05 42.1094 152.41C41.2812 151.753 39.4922 151.425 36.7422 151.425L30.9297 151.425C28.1641 151.425 26.375 151.746 25.5625 152.386C24.75 153.027 24.3437 154.277 24.3437 156.136C24.3437 157.98 24.7578 159.222 25.5859 159.863C26.4141 160.503 28.1953 160.824 30.9297 160.824ZM36.6953 148.121C40.3203 148.121 42.8516 148.714 44.2891 149.902C45.7109 151.074 46.4219 153.152 46.4219 156.136C46.4219 159.089 45.7031 161.167 44.2656 162.371C42.8281 163.558 40.3047 164.152 36.6953 164.152L30.9297 164.152C27.3203 164.152 24.8047 163.558 23.3828 162.371C21.9453 161.183 21.2266 159.089 21.2266 156.089C21.2266 153.121 21.9375 151.05 23.3594 149.878C24.7812 148.707 27.3047 148.121 30.9297 148.121L36.6953 148.121ZM46 139.581L11.1953 139.581L11.1953 134.073L41.8281 124.37L11.1953 113.94L11.1953 108.667L46 108.667L46 111.831L14.1719 111.831L46 122.636L46 126.151L14.1719 136.417L46 136.417L46 139.581ZM21.6719 96.635L37.1172 96.635C39.5234 96.635 41.2109 96.3381 42.1797 95.7444C43.1328 95.135 43.6094 94.1037 43.6094 92.6506C43.6094 90.8537 43 89.5725 41.7812 88.8069C40.5469 88.0412 38.3828 87.6584 35.2891 87.6584L21.6719 87.6584L21.6719 84.5412L46 84.5412L46 87.4241L43.1641 87.4241C44.2578 88.0491 45.0781 88.8537 45.625 89.8381C46.1562 90.8225 46.4219 92.0022 46.4219 93.3772C46.4219 95.6428 45.7734 97.2756 44.4766 98.2756C43.1797 99.26 41.0156 99.7522 37.9844 99.7522L21.6719 99.7522L21.6719 96.635ZM37.6094 61.2359L40.8672 61.2359C42.7422 61.2359 44.1406 61.7672 45.0625 62.8297C45.9687 63.8766 46.4219 65.4859 46.4219 67.6578L46.4219 70.4C46.4219 72.65 46.0156 74.2047 45.2031 75.0641C44.3906 75.9234 42.8984 76.3531 40.7266 76.3531L38.2187 76.3531L38.2187 73.2828L39.7187 73.2828C41.3437 73.2828 42.3906 73.0641 42.8594 72.6266C43.3281 72.1891 43.5625 71.3531 43.5625 70.1187L43.5625 67.9625C43.5625 66.6812 43.3359 65.7828 42.8828 65.2672C42.4141 64.7516 41.6094 64.4937 40.4687 64.4937L38.1719 64.4937C36.4531 64.4937 35.3672 65.9078 34.9141 68.7359C34.8359 69.2203 34.7734 69.5953 34.7266 69.8609C34.2422 72.6891 33.6953 74.4312 33.0859 75.0875C32.4766 75.7437 31.4687 76.0719 30.0625 76.0719L26.8047 76.0719C24.9141 76.0719 23.5156 75.5406 22.6094 74.4781C21.6875 73.4156 21.2266 71.7984 21.2266 69.6266L21.2266 67.4703C21.2266 65.2203 21.6328 63.6656 22.4453 62.8062C23.2578 61.9469 24.7578 61.5172 26.9453 61.5172L27.9531 61.5172L27.9531 64.5875L27.2734 64.5875C26.0859 64.5875 25.2656 64.8219 24.8125 65.2906C24.3437 65.7594 24.1094 66.5797 24.1094 67.7516L24.1094 69.3453C24.1094 70.6266 24.3359 71.525 24.7891 72.0406C25.2266 72.5406 26.0078 72.7906 27.1328 72.7906L29.4766 72.7906C30.7578 72.7906 31.6328 71.1891 32.1016 67.9859C32.2266 67.1109 32.3281 66.4156 32.4062 65.9C32.6719 64.2281 33.2031 63.0328 34 62.3141C34.7969 61.5953 36 61.2359 37.6094 61.2359ZM46 53.2822L21.6719 53.2822L21.6719 50.165L46 50.165L46 53.2822ZM15.2734 53.2822L11.1953 53.2822L11.1953 50.165L15.2734 50.165L15.2734 53.2822ZM37.0234 26.3675L38.0312 26.3675C40.9844 26.3675 43.125 26.9691 44.4531 28.1722C45.7656 29.3753 46.4219 31.3206 46.4219 34.0081C46.4219 36.9769 45.7109 39.055 44.2891 40.2425C42.8516 41.43 40.3203 42.0237 36.6953 42.0237L30.9297 42.0237C27.3203 42.0237 24.8047 41.43 23.3828 40.2425C21.9453 39.055 21.2266 36.9612 21.2266 33.9612C21.2266 31.4456 21.7891 29.6409 22.9141 28.5472C24.0234 27.4534 25.8594 26.9066 28.4219 26.9066L29.6406 26.9066L29.6406 30.0237L29.1953 30.0237C27.4297 30.0237 26.1797 30.3441 25.4453 30.9847C24.7109 31.6253 24.3437 32.7269 24.3437 34.2894C24.3437 36.0237 24.7422 37.1956 25.5391 37.805C26.3359 38.3987 28.1328 38.6956 30.9297 38.6956L36.7422 38.6956C39.5234 38.6956 41.3203 38.3831 42.1328 37.7581C42.9453 37.1331 43.3516 35.93 43.3516 34.1487C43.3516 32.3987 42.9922 31.2034 42.2734 30.5628C41.5391 29.9066 40.1094 29.5784 37.9844 29.5784L37.0234 29.5784L37.0234 26.3675Z" fill="black"/>
<g filter="url(#filter0_d)">
<circle cx="299.5" cy="163.5" r="147.5" fill="black"/>
<g opacity="0.8">
<circle cx="299.5" cy="163.5" r="138" stroke="url(#paint0_linear)"/>
<circle cx="299.5" cy="163.5" r="129" stroke="url(#paint1_linear)"/>
<circle cx="299.5" cy="163.5" r="120" stroke="url(#paint2_linear)"/>
<circle cx="299.5" cy="163.5" r="111" stroke="url(#paint3_linear)"/>
<circle cx="299.5" cy="163.5" r="102" stroke="url(#paint4_linear)"/>
<circle cx="299.5" cy="163.5" r="93" stroke="url(#paint5_linear)"/>
<circle cx="299.5" cy="163.5" r="84" stroke="url(#paint6_linear)"/>
<circle cx="299.5" cy="163.5" r="57" stroke="url(#paint7_linear)"/>
<circle cx="299.5" cy="163.5" r="75" stroke="url(#paint8_linear)"/>
<circle cx="299.5" cy="163.5" r="48" stroke="url(#paint9_linear)"/>
<circle cx="299.5" cy="163.5" r="66" stroke="url(#paint10_linear)"/>
</g>
<circle cx="299.5" cy="163.5" r="48.5" fill="#F2F2F2"/>
<circle cx="299.5" cy="163.5" r="2.5" fill="black"/>
</g>
<g filter="url(#filter1_d)">
<rect x="67" y="11" width="263" height="304" fill="white"/>
</g>
<path d="M291.999 189.878C292.193 190.048 292.442 190.142 292.701 190.142C292.959 190.142 293.208 190.048 293.402 189.878C294.137 189.236 294.844 188.633 295.469 188.101L295.469 188.1C297.297 186.543 298.875 185.198 299.973 183.873C301.201 182.392 301.772 180.987 301.772 179.453C301.772 177.962 301.261 176.586 300.333 175.58C299.394 174.561 298.105 174 296.704 174C295.657 174 294.698 174.331 293.853 174.984C293.427 175.314 293.041 175.717 292.701 176.187C292.361 175.717 291.974 175.314 291.548 174.984C290.704 174.331 289.745 174 288.698 174C287.296 174 286.008 174.561 285.068 175.58C284.14 176.586 283.629 177.962 283.629 179.453C283.629 180.987 284.201 182.392 285.429 183.873C286.527 185.198 288.105 186.543 289.933 188.101L289.936 188.104C290.56 188.635 291.266 189.237 291.999 189.878Z" fill="black"/>
<rect x="92" y="212.41" width="214" height="4.22091" rx="2.11045" fill="black"/>
<rect x="92" y="211.566" width="18.572" height="5.90927" rx="2.95464" fill="black"/>
<circle cx="105.296" cy="214.521" r="5.48718" fill="black"/>
<circle cx="199" cy="250.399" r="23.426" fill="black"/>
<path d="M211.829 248.667C213.162 249.436 213.162 251.361 211.829 252.131L194.086 262.374C192.753 263.144 191.086 262.182 191.086 260.642L191.086 240.155C191.086 238.615 192.753 237.653 194.086 238.423L211.829 248.667Z" fill="white"/>
<path d="M254.459 248.666C255.793 249.436 255.793 251.361 254.459 252.131L243.048 258.719C241.715 259.489 240.048 258.526 240.048 256.987L240.048 243.81C240.048 242.271 241.715 241.308 243.048 242.078L254.459 248.666Z" fill="black"/>
<rect x="254.505" y="261.584" width="22.3708" height="4.22091" rx="2.11045" transform="rotate(-90 254.505 261.584)" fill="black"/>
<path d="M143.541 252.13C142.207 251.361 142.207 249.436 143.541 248.666L154.952 242.078C156.285 241.308 157.952 242.27 157.952 243.81L157.952 256.987C157.952 258.526 156.285 259.489 154.952 258.719L143.541 252.13Z" fill="black"/>
<rect x="143.495" y="239.213" width="22.3708" height="4.22091" rx="2.11045" transform="rotate(90 143.495 239.213)" fill="black"/>
<path d="M302.413 244.489L297.664 247.23L297.664 241.747L302.413 244.489Z" fill="black"/>
<path d="M283.208 250.081L284.368 246.494L287.112 244.7L298.076 244.489" stroke="black" stroke-width="2"/>
<path d="M282.574 256.413L287.323 253.671L287.323 259.154L282.574 256.413Z" fill="black"/>
<path d="M301.779 250.82L300.618 254.408L297.875 256.202L286.911 256.413" stroke="black" stroke-width="2"/>
<path d="M120.597 245.756L115.848 248.497L115.848 243.014L120.597 245.756Z" fill="black"/>
<path d="M96.6429 254.83H99.3865L101.919 254.408L105.19 251.243L108.884 247.444L112.26 245.755H116.26" stroke="black" stroke-width="2"/>
<path d="M120.597 255.041L115.848 252.3L115.848 257.783L120.597 255.041Z" fill="black"/>
<path d="M96.6429 245.967H99.3865L101.919 246.389L105.19 249.554L108.884 253.353L112.26 255.042H116.26" stroke="black" stroke-width="2"/>
<path d="M115.694 134C127.231 134 136.595 124.636 136.595 113.099C136.595 101.562 127.231 92.1982 115.694 92.1982C104.157 92.1982 94.793 101.562 94.793 113.099C94.793 124.636 104.157 134 115.694 134ZM124.18 122.95V122.952C122.774 122.952 118.334 118.027 105.857 120.583C105.527 120.669 105.097 120.803 104.853 120.803C103.26 120.803 102.955 118.418 104.669 118.054C111.571 116.53 118.625 116.664 124.641 120.263C126.076 121.179 125.467 122.95 124.18 122.95ZM126.449 117.424C126.252 117.372 126.31 117.544 125.409 117.07C120.141 113.953 112.289 112.695 105.301 114.592C104.897 114.702 104.677 114.811 104.298 114.811C102.432 114.811 101.938 112.005 103.97 111.432C112.184 109.124 120.996 110.471 127.13 114.12C127.813 114.524 128.083 115.048 128.083 115.78C128.074 116.689 127.367 117.424 126.449 117.424ZM102.714 104.387C110.592 102.081 122.515 102.809 129.927 107.135C131.828 108.231 131.08 111.002 129.06 111.002L129.058 111C128.619 111 128.349 110.891 127.97 110.671C121.973 107.09 111.242 106.231 104.299 108.17C103.995 108.254 103.615 108.388 103.211 108.388C102.098 108.388 101.248 107.519 101.248 106.399C101.248 105.254 101.957 104.606 102.714 104.387Z" fill="#80B955"/>
<rect x="145.276" y="109.687" width="3.33094" height="6.82473" rx="1.66547" fill="#80B955"/>
<rect x="151.938" y="99.0234" width="3.33094" height="28.152" rx="1.66547" fill="#80B955"/>
<rect x="158.6" y="104.995" width="3.33094" height="16.2087" rx="1.66547" fill="#80B955"/>
<rect x="165.262" y="100.73" width="3.33094" height="24.7397" rx="1.66547" fill="#80B955"/>
<rect x="171.924" y="94.3315" width="3.33094" height="37.536" rx="1.66547" fill="#80B955"/>
<rect x="178.586" y="98.1704" width="3.33094" height="29.8582" rx="1.66547" fill="#80B955"/>
<rect x="185.248" y="104.995" width="3.33094" height="16.2087" rx="1.66547" fill="#80B955"/>
<rect x="191.909" y="98.5967" width="3.33094" height="29.0051" rx="1.66547" fill="#80B955"/>
<rect x="198.571" y="104.569" width="3.33094" height="17.0618" rx="1.66547" fill="#80B955"/>
<rect x="205.233" y="104.569" width="3.33094" height="17.0618" rx="1.66547" fill="#80B955"/>
<rect x="211.895" y="104.569" width="3.33094" height="17.0618" rx="1.66547" fill="#80B955"/>
<rect x="218.557" y="93.9048" width="3.33094" height="38.3891" rx="1.66547" fill="#80B955"/>
<rect x="225.219" y="106.701" width="3.33094" height="12.7964" rx="1.66547" fill="#80B955"/>
<rect x="231.881" y="104.995" width="3.33094" height="16.2087" rx="1.66547" fill="#80B955"/>
<rect x="238.543" y="104.995" width="3.33094" height="16.2087" rx="1.66547" fill="#80B955"/>
<rect x="245.205" y="97.7441" width="3.33094" height="30.7113" rx="1.66547" fill="#80B955"/>
<rect x="251.866" y="105.848" width="3.33094" height="14.5026" rx="1.66547" fill="#80B955"/>
<rect x="258.528" y="100.303" width="3.33094" height="25.5928" rx="1.66547" fill="#80B955"/>
<rect x="265.19" y="100.73" width="3.33094" height="24.7397" rx="1.66547" fill="#80B955"/>
<rect x="271.852" y="99.0234" width="3.33094" height="28.152" rx="1.66547" fill="#80B955"/>
<rect x="278.514" y="97.7441" width="3.33094" height="30.7113" rx="1.66547" fill="#80B955"/>
<rect x="285.176" y="94.3315" width="3.33094" height="37.536" rx="1.66547" fill="#80B955"/>
<rect x="291.838" y="92.1987" width="3.33094" height="41.8015" rx="1.66547" fill="#80B955"/>
<rect x="298.5" y="108.834" width="3.33094" height="8.53092" rx="1.66547" fill="#80B955"/>
<defs>
<filter id="filter0_d" x="137" y="5" width="325" height="325" filterUnits="userSpaceOnUse" color-interpolation-filters="sRGB">
<feFlood flood-opacity="0" result="BackgroundImageFix"/>
<feColorMatrix in="SourceAlpha" type="matrix" values="0 0 0 0 0 0 0 0 0 0 0 0 0 0 0 0 0 0 127 0"/>
<feOffset dy="4"/>
<feGaussianBlur stdDeviation="7.5"/>
<feColorMatrix type="matrix" values="0 0 0 0 0 0 0 0 0 0 0 0 0 0 0 0 0 0 0.07 0"/>
<feBlend mode="normal" in2="BackgroundImageFix" result="effect1_dropShadow"/>
<feBlend mode="normal" in="SourceGraphic" in2="effect1_dropShadow" result="shape"/>
</filter>
<filter id="filter1_d" x="52" y="0" width="293" height="334" filterUnits="userSpaceOnUse" color-interpolation-filters="sRGB">
<feFlood flood-opacity="0" result="BackgroundImageFix"/>
<feColorMatrix in="SourceAlpha" type="matrix" values="0 0 0 0 0 0 0 0 0 0 0 0 0 0 0 0 0 0 127 0"/>
<feOffset dy="4"/>
<feGaussianBlur stdDeviation="7.5"/>
<feColorMatrix type="matrix" values="0 0 0 0 0 0 0 0 0 0 0 0 0 0 0 0 0 0 0.07 0"/>
<feBlend mode="normal" in2="BackgroundImageFix" result="effect1_dropShadow"/>
<feBlend mode="normal" in="SourceGraphic" in2="effect1_dropShadow" result="shape"/>
</filter>
<linearGradient id="paint0_linear" x1="299.5" y1="25" x2="299.5" y2="302" gradientUnits="userSpaceOnUse">
<stop stop-color="#BFB9B9"/>
<stop offset="1" stop-color="#0E0E0E" stop-opacity="0"/>
</linearGradient>
<linearGradient id="paint1_linear" x1="299.5" y1="34" x2="299.5" y2="293" gradientUnits="userSpaceOnUse">
<stop stop-color="#BFB9B9"/>
<stop offset="1" stop-color="#0E0E0E" stop-opacity="0"/>
</linearGradient>
<linearGradient id="paint2_linear" x1="299.5" y1="43" x2="299.5" y2="284" gradientUnits="userSpaceOnUse">
<stop stop-color="#BFB9B9"/>
<stop offset="1" stop-color="#0E0E0E" stop-opacity="0"/>
</linearGradient>
<linearGradient id="paint3_linear" x1="299.5" y1="52" x2="299.5" y2="275" gradientUnits="userSpaceOnUse">
<stop stop-color="#BFB9B9"/>
<stop offset="1" stop-color="#0E0E0E" stop-opacity="0"/>
</linearGradient>
<linearGradient id="paint4_linear" x1="299.5" y1="61" x2="299.5" y2="266" gradientUnits="userSpaceOnUse">
<stop stop-color="#BFB9B9"/>
<stop offset="1" stop-color="#0E0E0E" stop-opacity="0"/>
</linearGradient>
<linearGradient id="paint5_linear" x1="299.5" y1="70" x2="299.5" y2="257" gradientUnits="userSpaceOnUse">
<stop stop-color="#BFB9B9"/>
<stop offset="1" stop-color="#0E0E0E" stop-opacity="0"/>
</linearGradient>
<linearGradient id="paint6_linear" x1="299.5" y1="79" x2="299.5" y2="248" gradientUnits="userSpaceOnUse">
<stop stop-color="#BFB9B9"/>
<stop offset="1" stop-color="#0E0E0E" stop-opacity="0"/>
</linearGradient>
<linearGradient id="paint7_linear" x1="299.5" y1="106" x2="299.5" y2="221" gradientUnits="userSpaceOnUse">
<stop stop-color="#BFB9B9"/>
<stop offset="1" stop-color="#0E0E0E" stop-opacity="0"/>
</linearGradient>
<linearGradient id="paint8_linear" x1="299.5" y1="88" x2="299.5" y2="239" gradientUnits="userSpaceOnUse">
<stop stop-color="#BFB9B9"/>
<stop offset="1" stop-color="#0E0E0E" stop-opacity="0"/>
</linearGradient>
<linearGradient id="paint9_linear" x1="299.5" y1="115" x2="299.5" y2="212" gradientUnits="userSpaceOnUse">
<stop stop-color="#BFB9B9"/>
<stop offset="1" stop-color="#0E0E0E" stop-opacity="0"/>
</linearGradient>
<linearGradient id="paint10_linear" x1="299.5" y1="97" x2="299.5" y2="230" gradientUnits="userSpaceOnUse">
<stop stop-color="#BFB9B9"/>
<stop offset="1" stop-color="#0E0E0E" stop-opacity="0"/>
</linearGradient>
</defs>
</svg>
