<svg width="17" height="18" viewBox="0 0 17 18" fill="none" xmlns="http://www.w3.org/2000/svg">
<path d="M1 11.2857L0.640299 10.9384L0.5 11.0837V11.2857H1ZM10.931 1L11.2907 0.652703C11.1965 0.555116 11.0667 0.5 10.931 0.5C10.7954 0.5 10.6656 0.555116 10.5713 0.652703L10.931 1ZM16.4483 6.71429L16.808 7.06158C16.995 6.86784 16.995 6.56074 16.808 6.36699L16.4483 6.71429ZM6.51724 17V17.5H6.72951L6.87694 17.3473L6.51724 17ZM1 17H0.5C0.5 17.2761 0.723858 17.5 1 17.5V17ZM1.3597 11.633L11.2907 1.3473L10.5713 0.652703L0.640299 10.9384L1.3597 11.633ZM10.5713 1.3473L16.0886 7.06158L16.808 6.36699L11.2907 0.652703L10.5713 1.3473ZM16.0886 6.36699L6.15754 16.6527L6.87694 17.3473L16.808 7.06158L16.0886 6.36699ZM6.51724 16.5H1V17.5H6.51724V16.5ZM1.5 17V11.2857H0.5V17H1.5ZM7.26099 4.77587L12.7782 10.4902L13.4976 9.79556L7.98039 4.08127L7.26099 4.77587ZM9.27586 17.5H17V16.5H9.27586V17.5Z" fill="#0D1018"/>
</svg>
