<svg width="20" height="22" viewBox="0 0 20 22" fill="none" xmlns="http://www.w3.org/2000/svg">
<path d="M19.7668 21.0812L18.3291 6.17252C18.2898 5.76537 17.9234 5.45352 17.4844 5.45352H14.5195V4.2084C14.5195 1.88789 12.4921 0 10.0001 0C7.50819 0 5.48101 1.88789 5.48101 4.2084V5.45352H2.51408C2.07513 5.45352 1.70866 5.76537 1.66943 6.17252L0.226047 21.1398C0.204789 21.3607 0.284167 21.5796 0.444844 21.7432C0.605521 21.9068 0.832685 22 1.0707 22H18.9279C18.9286 22 18.9295 22 18.9302 22C19.3986 22 19.7782 21.6464 19.7782 21.2104C19.7781 21.1664 19.7743 21.1232 19.7668 21.0812ZM7.17711 4.2084C7.17711 2.75871 8.44353 1.57929 10.0002 1.57929C11.557 1.57929 12.8235 2.75871 12.8235 4.2084V5.45352H7.17711V4.2084ZM1.99836 20.4208L3.28943 7.03281H5.48101V8.44491C5.48101 8.88101 5.8606 9.23456 6.32906 9.23456C6.79752 9.23456 7.17711 8.88101 7.17711 8.44491V7.03281H12.8235V8.44491C12.8235 8.88101 13.2031 9.23456 13.6716 9.23456C14.14 9.23456 14.5196 8.88101 14.5196 8.44491V7.03281H16.7092L18.0002 20.4208H1.99836Z" fill="#373F41"/>
</svg>
